<svg xmlns="http://www.w3.org/2000/svg" xmlns:xlink="http://www.w3.org/1999/xlink"><defs><pattern id="p1" patternUnits="userSpaceOnUse" width="296" height="105" patternTransform="matrix(0.99966 0 0 1 211 40)"><image href="assets/game/intro/bitmaps/1.png" width="296" height="105" style="image-rendering:pixelated"/></pattern><pattern id="p2" patternUnits="userSpaceOnUse" width="346" height="173" patternTransform="matrix(0.99986 0 0 0.99971 190 177)"><image href="assets/game/intro/bitmaps/2.png" width="346" height="173" style="image-rendering:pixelated"/></pattern><linearGradient id="g3" gradientUnits="userSpaceOnUse" x1="-819.2" y1="0" x2="819.2" y2="0" spreadMethod="pad" gradientTransform="matrix(0 0.0084686 -0.0084686 0 6 7.9)"><stop offset="0" stop-color="#929292"/><stop offset="1" stop-color="#3a3a3a"/></linearGradient><linearGradient id="g4" gradientUnits="userSpaceOnUse" x1="-819.2" y1="0" x2="819.2" y2="0" spreadMethod="pad" gradientTransform="matrix(0 0.0073242 -0.0073242 0 8 8)"><stop offset="0" stop-color="#eaeaea"/><stop offset="1" stop-color="#ffffff"/></linearGradient><linearGradient id="g5" gradientUnits="userSpaceOnUse" x1="-819.2" y1="0" x2="819.2" y2="0" spreadMethod="pad" gradientTransform="matrix(0 0.0079346 -0.0079346 0 8 8.5)"><stop offset="0" stop-color="#986500"/><stop offset="1" stop-color="#6b3800"/></linearGradient><linearGradient id="g6" gradientUnits="userSpaceOnUse" x1="-819.2" y1="0" x2="819.2" y2="0" spreadMethod="pad" gradientTransform="matrix(0 0.0079346 -0.0079346 0 9 8.5)"><stop offset="0" stop-color="#986500"/><stop offset="1" stop-color="#6b3800"/></linearGradient><linearGradient id="g7" gradientUnits="userSpaceOnUse" x1="-819.2" y1="0" x2="819.2" y2="0" spreadMethod="pad" gradientTransform="matrix(0 0.0079346 -0.0079346 0 8 8.5)"><stop offset="0" stop-color="#986500"/><stop offset="1" stop-color="#6b3800"/></linearGradient><linearGradient id="g8" gradientUnits="userSpaceOnUse" x1="-819.2" y1="0" x2="819.2" y2="0" spreadMethod="pad" gradientTransform="matrix(0 0.0079346 -0.0079346 0 10 8.5)"><stop offset="0" stop-color="#986500"/><stop offset="1" stop-color="#6b3800"/></linearGradient><linearGradient id="g9" gradientUnits="userSpaceOnUse" x1="-819.2" y1="0" x2="819.2" y2="0" spreadMethod="pad" gradientTransform="matrix(0 0.0079346 -0.0079346 0 11 8.5)"><stop offset="0" stop-color="#986500"/><stop offset="1" stop-color="#6b3800"/></linearGradient><linearGradient id="g10" gradientUnits="userSpaceOnUse" x1="-819.2" y1="0" x2="819.2" y2="0" spreadMethod="pad" gradientTransform="matrix(0 0.0067139 -0.0067139 0 8.5 8.5)"><stop offset="0" stop-color="#ffcc00"/><stop offset="1" stop-color="#fff780"/></linearGradient><linearGradient id="g11" gradientUnits="userSpaceOnUse" x1="-819.2" y1="0" x2="819.2" y2="0" spreadMethod="pad" gradientTransform="matrix(0 0.0067139 -0.0067139 0 6.5 8.5)"><stop offset="0" stop-color="#ffcc00"/><stop offset="1" stop-color="#fff780"/></linearGradient><linearGradient id="g12" gradientUnits="userSpaceOnUse" x1="-819.2" y1="0" x2="819.2" y2="0" spreadMethod="pad" gradientTransform="matrix(0 0.0067139 -0.0067139 0 8.2 8.5)"><stop offset="0" stop-color="#ffcc00"/><stop offset="1" stop-color="#fff780"/></linearGradient><linearGradient id="g13" gradientUnits="userSpaceOnUse" x1="-819.2" y1="0" x2="819.2" y2="0" spreadMethod="pad" gradientTransform="matrix(0 0.0067139 -0.0067139 0 7.5 8.5)"><stop offset="0" stop-color="#ffcc00"/><stop offset="1" stop-color="#fff780"/></linearGradient><linearGradient id="g14" gradientUnits="userSpaceOnUse" x1="-819.2" y1="0" x2="819.2" y2="0" spreadMethod="pad" gradientTransform="matrix(0 0.0067139 -0.0067139 0 5.5 8.5)"><stop offset="0" stop-color="#ffcc00"/><stop offset="1" stop-color="#fff780"/></linearGradient><linearGradient id="g15" gradientUnits="userSpaceOnUse" x1="-819.2" y1="0" x2="819.2" y2="0" spreadMethod="pad" gradientTransform="matrix(0 0.0067139 -0.0066376 0 7.85 8.5)"><stop offset="0" stop-color="#ffcc00"/><stop offset="1" stop-color="#fff780"/></linearGradient><linearGradient id="g16" gradientUnits="userSpaceOnUse" x1="-819.2" y1="0" x2="819.2" y2="0" spreadMethod="pad" gradientTransform="matrix(0 0.0079346 -0.0079346 0 9 8.5)"><stop offset="0" stop-color="#986500"/><stop offset="1" stop-color="#6b3800"/></linearGradient><linearGradient id="g17" gradientUnits="userSpaceOnUse" x1="-819.2" y1="0" x2="819.2" y2="0" spreadMethod="pad" gradientTransform="matrix(0 0.0079346 -0.0079346 0 8 8.5)"><stop offset="0" stop-color="#986500"/><stop offset="1" stop-color="#6b3800"/></linearGradient><linearGradient id="g18" gradientUnits="userSpaceOnUse" x1="-819.2" y1="0" x2="819.2" y2="0" spreadMethod="pad" gradientTransform="matrix(0 0.0067139 -0.0067139 0 9 8.5)"><stop offset="0" stop-color="#ffcc00"/><stop offset="1" stop-color="#fff780"/></linearGradient><linearGradient id="g19" gradientUnits="userSpaceOnUse" x1="-819.2" y1="0" x2="819.2" y2="0" spreadMethod="pad" gradientTransform="matrix(0 0.0067139 -0.0067139 0 8 8.5)"><stop offset="0" stop-color="#ffcc00"/><stop offset="1" stop-color="#fff780"/></linearGradient><linearGradient id="g20" gradientUnits="userSpaceOnUse" x1="-819.2" y1="0" x2="819.2" y2="0" spreadMethod="pad" gradientTransform="matrix(0.12239 0.1218 -0.033096 0.033264 0 0)" color-interpolation="linearRGB"><stop offset="0" stop-color="#ffffff" stop-opacity="0.2"/><stop offset="1" stop-color="#000000" stop-opacity="0.2"/></linearGradient><linearGradient id="g21" gradientUnits="userSpaceOnUse" x1="-819.2" y1="0" x2="819.2" y2="0" spreadMethod="pad" gradientTransform="matrix(0 0.15869 -0.045776 0 78.85 -59.5)"><stop offset="0" stop-color="#ffffff"/><stop offset="1" stop-color="#000000"/></linearGradient><pattern id="p22" patternUnits="userSpaceOnUse" width="31" height="31" patternTransform="matrix(0.96774 0 0 0.96774 -15 -15)"><image href="assets/game/intro/bitmaps/256.png" width="31" height="31" style="image-rendering:pixelated"/></pattern><pattern id="p23" patternUnits="userSpaceOnUse" width="64" height="64" patternTransform="matrix(7.9985 0 0 7.9985 -255.95 -255.95)"><image href="assets/game/intro/bitmaps/261.png" width="64" height="64" style="image-rendering:pixelated"/></pattern><g id="c3"><path d="M700 490L0 490L0 0L700 0L700 490Z" fill="#ffffff" fill-rule="evenodd"/><path d="M506.9 145L211 145L211 40L506.9 40L506.9 145Z" fill="url(#p1)" fill-rule="evenodd"/><path d="M535.95 349.95L190 349.95L190 177L535.95 177L535.95 349.95Z" fill="url(#p2)" fill-rule="evenodd"/></g><g id="c4"><path d="M0.75 0.75L-0.7 0.75L-0.7 -0.7L0.75 -0.7L0.75 0.75Z" fill="#ffffff" fill-rule="evenodd"/></g><g id="c6"><path d="M57.5 228.8L57.6 230.6L57.55 231.8L57.45 232.6L57.3 233L57.05 233.15L56.45 232.7L55.3 231.75Q54.6 231.25 53.65 230.85L51.35 230.4Q49.95 230.4 48.85 231.2Q47.75 231.95 46.95 233.4Q46.15 234.8 45.7 236.8Q45.3 238.8 45.3 241.2Q45.3 243.9 45.75 245.9Q46.15 247.9 46.95 249.3Q47.7 250.65 48.85 251.35Q49.9 252.05 51.25 252.05L52.5 251.8L53.7 251.1L53.7 243.9L50.1 243.9Q49.85 243.9 49.7 243.4Q49.55 242.85 49.55 241.55L49.6 240.4L49.7 239.7L49.85 239.3Q49.95 239.15 50.1 239.15L56.5 239.15L56.95 239.3L57.25 239.65L57.45 240.3L57.55 241.15L57.55 253.45L57.4 254.75L56.75 255.6L55.6 256.2L54.1 256.8L52.6 257.15L51.05 257.3Q48.75 257.3 46.95 256.2Q45.15 255.15 43.9 253.15Q42.65 251.1 42 248.2Q41.3 245.3 41.3 241.6Q41.3 237.8 42.05 234.8Q42.75 231.75 44.05 229.65Q45.3 227.5 47.15 226.4Q49 225.25 51.25 225.25L53.5 225.55Q54.5 225.8 55.25 226.2L56.5 227.05L57.2 227.85L57.5 228.8ZM14.55 226.2L14.85 225.9L15.45 225.7L16.35 225.65L17.3 225.7L17.9 225.9L18.2 226.2L18.3 226.65L18.3 255.9L18.2 256.3L17.9 256.65L17.3 256.8L16.35 256.9L15.45 256.8L14.85 256.65L14.55 256.3L14.4 255.9L14.4 226.65Q14.4 226.4 14.55 226.2ZM1.25 230.7L-0.7 230.7L-0.7 251.75L1.3 251.75Q2.9 251.75 3.95 251.1Q5.05 250.45 5.8 249.1Q6.5 247.75 6.9 245.7Q7.25 243.7 7.25 241.05L6.95 236.95Q6.6 235.05 5.9 233.65Q5.2 232.25 4.1 231.5Q3 230.7 1.25 230.7ZM8.75 229.65Q9.95 231.55 10.6 234.35Q11.25 237.15 11.25 240.8Q11.25 245.05 10.55 248.1Q9.85 251.15 8.6 253.05Q7.3 254.95 5.5 255.85Q3.65 256.75 1.1 256.75L-3.45 256.75Q-3.9 256.75 -4.25 256.3Q-4.6 255.8 -4.6 254.75L-4.6 227.8Q-4.6 226.7 -4.25 226.25Q-3.9 225.8 -3.45 225.8L1.45 225.8Q4 225.8 5.8 226.75Q7.55 227.75 8.75 229.65ZM38.15 226.7L38.15 254.55L38.05 255.55L37.75 256.25L37.25 256.7L36.7 256.8L35.05 256.8L34.2 256.65L33.5 256.05L32.85 254.85L32.2 252.85L27.45 238.4L26.65 235.6L25.85 232.7L25.95 236.15L25.95 239.65L25.95 255.85L25.9 256.3L25.6 256.65L25.05 256.8L24.2 256.9L23.35 256.8L22.8 256.65L22.55 256.3L22.45 255.85L22.45 228.05Q22.45 226.9 22.9 226.35Q23.3 225.8 23.85 225.8L25.95 225.8L26.9 225.95L27.6 226.45L28.15 227.45L28.7 229L32.4 240.35L33.05 242.35L33.65 244.35L34.2 246.3L34.75 248.2L34.7 244.7L34.7 241.25L34.7 226.7L34.75 226.3L35.05 225.95Q35.25 225.8 35.6 225.75L36.5 225.7L37.3 225.75L37.85 225.95L38.1 226.3L38.15 226.7ZM-26.6 233.95Q-26.05 236.9 -26.05 240.9Q-26.05 244.75 -26.65 247.8Q-27.25 250.85 -28.4 252.95Q-29.55 255.1 -31.25 256.2Q-33 257.3 -35.25 257.3Q-37.45 257.3 -39.1 256.35Q-40.75 255.4 -41.85 253.45Q-42.95 251.55 -43.5 248.55Q-44.05 245.55 -44.05 241.45Q-44.05 237.7 -43.5 234.7Q-42.9 231.7 -41.75 229.6Q-40.55 227.5 -38.85 226.35Q-37.15 225.25 -34.9 225.25Q-32.7 225.25 -31.05 226.15Q-29.4 227.1 -28.3 229.05Q-27.2 231 -26.6 233.95ZM-32.65 231.2Q-33.6 230.4 -35 230.4Q-36.45 230.4 -37.4 231.3Q-38.35 232.15 -38.95 233.6Q-39.55 235.05 -39.75 237.05L-40 241.15L-39.8 245.7L-39 249.15Q-38.45 250.6 -37.5 251.35Q-36.55 252.1 -35.1 252.1Q-33.7 252.1 -32.75 251.25Q-31.8 250.4 -31.2 248.9Q-30.6 247.4 -30.35 245.45Q-30.1 243.45 -30.1 241.25Q-30.1 238.8 -30.35 236.8Q-30.6 234.8 -31.15 233.4Q-31.7 231.95 -32.65 231.2ZM-13.75 225.85L-13.3 226.25L-13.1 226.95L-7.25 254.4L-7 255.75Q-6.95 256.25 -7.15 256.55L-7.7 256.85L-8.85 256.9L-10 256.85L-10.65 256.75L-10.95 256.4L-11.1 255.9L-12.4 249.7L-19.55 249.7L-20.75 255.75L-20.9 256.3L-21.2 256.7L-21.8 256.85L-22.85 256.9L-23.9 256.8L-24.4 256.5L-24.5 255.7L-24.3 254.35L-18.45 226.9L-18.2 226.25L-17.85 225.85L-17.15 225.7L-15.95 225.65L-14.55 225.7L-13.75 225.85ZM-16 231.7L-18.7 244.85L-13.3 244.85L-15.95 231.7L-16 231.7ZM-52.05 226.65L-52.05 251.55L-46.05 251.55Q-45.9 251.55 -45.8 251.7L-45.6 252.15L-45.5 252.9L-45.45 254.1L-45.5 255.35L-45.6 256.15L-45.8 256.6Q-45.9 256.75 -46.05 256.75L-54.8 256.75Q-55.25 256.75 -55.6 256.3Q-55.95 255.8 -55.95 254.75L-55.95 226.65L-55.8 226.2L-55.5 225.9L-54.9 225.7L-54 225.65L-53.05 225.7L-52.45 225.9L-52.15 226.2L-52.05 226.65Z" fill="#ff0000" fill-rule="evenodd"/></g><g id="c7"><path d="M320.7 288L-319.3 288L-319.3 192L320.7 192L320.7 288" fill="none" stroke="#000000" stroke-width="2" stroke-opacity="0.5" stroke-linecap="round" stroke-linejoin="miter" stroke-miterlimit="1"/></g><g id="c8"><path d="M320 288L-320 288L-320 192L320 192L320 288Z" fill="#ff0000" fill-opacity="0.1" fill-rule="evenodd"/></g><g id="c9"><path d="M55.3 224.9L54.9 246.6L54.85 247.05L54.6 247.35L54.1 247.55L53.3 247.65L52.55 247.55L52.05 247.35L51.8 247.05L51.7 246.6L51.3 224.9L51.4 224.35L51.7 223.95L52.35 223.7L53.3 223.65L54.3 223.75L54.9 223.95L55.2 224.35L55.3 224.9ZM46.1 234.35Q46.75 237.15 46.75 240.8Q46.75 245.05 46.05 248.1Q45.35 251.15 44.1 253.05Q42.8 254.95 41 255.85Q39.15 256.75 36.6 256.75L32.05 256.75L31.25 256.3Q30.9 255.8 30.9 254.75L30.9 227.8Q30.9 226.7 31.25 226.25Q31.6 225.8 32.05 225.8L36.95 225.8Q39.5 225.8 41.3 226.75Q43.05 227.75 44.25 229.65Q45.45 231.55 46.1 234.35ZM42.75 241.05L42.45 236.95Q42.1 235.05 41.4 233.65Q40.7 232.25 39.6 231.5Q38.5 230.7 36.75 230.7L34.8 230.7L34.8 251.75L36.8 251.75Q38.4 251.75 39.45 251.1Q40.55 250.45 41.3 249.1Q42 247.75 42.4 245.7Q42.75 243.7 42.75 241.05ZM17.35 225.8L26.85 225.8L27.1 225.9L27.3 226.35L27.4 227.1L27.45 228.3L27.4 229.45L27.3 230.15L27.1 230.6L26.85 230.7L20.1 230.7L20.1 238.3L25.85 238.3L26.1 238.4L26.25 238.85L26.35 239.55L26.4 240.7L26.35 241.85L26.25 242.6L26.1 242.95L25.85 243.1L20.1 243.1L20.1 251.8L26.95 251.8Q27.05 251.8 27.2 251.95L27.35 252.35L27.5 253.15L27.5 254.3L27.5 255.45L27.35 256.2L27.2 256.65L26.95 256.75L17.35 256.75Q16.9 256.75 16.55 256.3Q16.2 255.8 16.2 254.75L16.2 227.8Q16.2 226.7 16.55 226.25Q16.9 225.8 17.35 225.8ZM12.4 234.35Q13.05 237.15 13.05 240.8Q13.05 245.05 12.35 248.1Q11.65 251.15 10.4 253.05Q9.1 254.95 7.3 255.85Q5.45 256.75 2.9 256.75L-1.65 256.75L-2.45 256.3Q-2.8 255.8 -2.8 254.75L-2.8 227.8Q-2.8 226.7 -2.45 226.25Q-2.1 225.8 -1.65 225.8L3.25 225.8Q5.8 225.8 7.6 226.75Q9.35 227.75 10.55 229.65Q11.75 231.55 12.4 234.35ZM5.9 231.5Q4.8 230.7 3.05 230.7L1.1 230.7L1.1 251.75L3.1 251.75Q4.7 251.75 5.75 251.1Q6.85 250.45 7.6 249.1Q8.3 247.75 8.7 245.7Q9.05 243.7 9.05 241.05L8.75 236.95Q8.4 235.05 7.7 233.65Q7 232.25 5.9 231.5ZM54.3 250.25L54.95 250.85L55.3 251.95L55.4 253.6L55.3 255.25L54.95 256.35L54.3 256.95L53.3 257.1L52.3 256.95Q51.9 256.75 51.65 256.35L51.35 255.25L51.25 253.6L51.35 251.95Q51.4 251.25 51.65 250.85Q51.9 250.4 52.3 250.25L53.3 250.05L54.3 250.25ZM-26.55 229.05Q-25.45 231 -24.85 233.95Q-24.3 236.9 -24.3 240.9Q-24.3 244.75 -24.9 247.8Q-25.5 250.85 -26.65 252.95Q-27.8 255.1 -29.5 256.2Q-31.25 257.3 -33.5 257.3Q-35.7 257.3 -37.35 256.35Q-39 255.4 -40.1 253.45Q-41.2 251.55 -41.75 248.55Q-42.3 245.55 -42.3 241.45Q-42.3 237.7 -41.75 234.7Q-41.15 231.7 -40 229.6Q-38.8 227.5 -37.1 226.35Q-35.4 225.25 -33.15 225.25Q-30.95 225.25 -29.3 226.15Q-27.65 227.1 -26.55 229.05ZM-33.25 230.4Q-34.7 230.4 -35.65 231.3Q-36.6 232.15 -37.2 233.6Q-37.8 235.05 -38 237.05L-38.25 241.15L-38.05 245.7L-37.25 249.15Q-36.7 250.6 -35.75 251.35Q-34.8 252.1 -33.35 252.1Q-31.95 252.1 -31 251.25Q-30.05 250.4 -29.45 248.9Q-28.85 247.4 -28.6 245.45Q-28.35 243.45 -28.35 241.25Q-28.35 238.8 -28.6 236.8Q-28.85 234.8 -29.4 233.4Q-29.95 231.95 -30.9 231.2Q-31.85 230.4 -33.25 230.4ZM-11.5 226.25L-11.3 226.95L-5.45 254.4L-5.2 255.75Q-5.15 256.25 -5.35 256.55L-5.9 256.85L-7.05 256.9L-8.2 256.85L-8.85 256.75L-9.15 256.4L-9.3 255.9L-10.6 249.7L-17.75 249.7L-18.95 255.75L-19.1 256.3L-19.4 256.7L-20 256.85L-21.05 256.9L-22.1 256.8Q-22.45 256.75 -22.6 256.5L-22.7 255.7L-22.5 254.35L-16.65 226.9L-16.4 226.25L-16.05 225.85L-15.35 225.7L-14.15 225.65L-12.75 225.7L-11.95 225.85L-11.5 226.25ZM-14.2 231.7L-16.9 244.85L-11.5 244.85L-14.15 231.7L-14.2 231.7ZM-50.25 226.65L-50.25 251.55L-44.25 251.55Q-44.1 251.55 -44 251.7L-43.8 252.15L-43.7 252.9L-43.65 254.1L-43.7 255.35L-43.8 256.15L-44 256.6L-44.25 256.75L-53 256.75Q-53.45 256.75 -53.8 256.3Q-54.15 255.8 -54.15 254.75L-54.15 226.65L-54 226.2L-53.7 225.9L-53.1 225.7L-52.2 225.65L-51.25 225.7L-50.65 225.9L-50.35 226.2L-50.25 226.65Z" fill="#ff0000" fill-rule="evenodd"/></g><g id="c15"><path d="M-512 -384L512 -384L512 384L-512 384L-512 -384Z" fill="#000000" fill-rule="evenodd"/></g><g id="c18"><path d="M16 0L16 16L0 16L0 0L16 0Z" fill="#ff0000" fill-opacity="0" fill-rule="evenodd"/><path d="M3 3.5L3 2.5L9 2.5L9 3.5L3 3.5Z" fill="#ffffff" fill-rule="evenodd"/><path d="M11 2L15 6L15 16L3 16L3 2L11 2Z" fill="#000000" fill-opacity="0.2" fill-rule="evenodd"/><path d="M2 1L10 1L14 5L14 15L2 15L2 1Z" fill="url(#g3)" fill-rule="evenodd"/><path d="M3 2L10 2L10 5L13 5L13 14L3 14L3 2Z" fill="url(#g4)" fill-rule="evenodd"/><path d="M2 15L2 1L10 1L11 2L2 15Z" fill="#ffffff" fill-opacity="0.4" fill-rule="evenodd"/></g><g id="c20"><path d="M16 0L16 16L0 16L0 0L16 0Z" fill="#ff0000" fill-opacity="0" fill-rule="evenodd"/><path d="M2 4L2 2L8 2L8 4L15 4L1 13L1 4L2 4Z" fill="#ffffff" fill-opacity="0.35" fill-rule="evenodd"/><path d="M3 5.05L3 3.05L9 3.05L9 5.05L15 5.05L14 14.05L2 14.05L2 5.05L3 5.05Z" fill="#000000" fill-opacity="0.2" fill-rule="evenodd"/><path d="M2 4L2 2L8 2L8 4L14 4L14 13L1 13L1 4L2 4Z" fill="url(#g5)" fill-rule="evenodd"/><path d="M13 12L2 12L2 5L3 5L3 3L7 3L7 5L13 5L13 12Z" fill="#f3b701" fill-rule="evenodd"/><path d="M14 4.05L1 13L1 4L2 4L2 2L8 2L8 4.05L14 4.05Z" fill="#ffffff" fill-opacity="0.35" fill-rule="evenodd"/><path d="M8.85 13L1 13L3 6L8.85 6L8.85 13Z" fill="url(#g6)" fill-rule="evenodd"/><path d="M11.65 6L16 6L14 13L11.65 13L11.65 6Z" fill="url(#g7)" fill-rule="evenodd"/><path d="M11.65 13L10.55 13L10.55 6L11.65 6L11.65 13Z" fill="url(#g8)" fill-rule="evenodd"/><path d="M10.55 13L8.85 13L8.85 6L10.55 6L10.55 13Z" fill="url(#g9)" fill-rule="evenodd"/><path d="M10.4 7L10.4 12L9.3 12L9.3 7L10.4 7Z" fill="url(#g10)" fill-rule="evenodd"/><path d="M7.4 7L7.6 7L7.6 12L7.4 12L7.4 7Z" fill="url(#g11)" fill-rule="evenodd"/><path d="M5.6 12L2.5 12L3.95 7L5.6 7L5.6 12Z" fill="url(#g12)" fill-rule="evenodd"/><path d="M9.3 7L9.3 12L7.6 12L7.6 7L9.3 7Z" fill="url(#g13)" fill-rule="evenodd"/><path d="M5.6 7L7.4 7L7.4 12L5.6 12L5.6 7Z" fill="url(#g14)" fill-rule="evenodd"/><path d="M10.4 12L10.4 7L14.5 7L13.05 12L10.4 12Z" fill="url(#g15)" fill-rule="evenodd"/><path d="M15 6.05L1 13L3 6.05L15 6.05Z" fill="#ffffff" fill-opacity="0.35" fill-rule="evenodd"/><path d="M14.2 8L3.7 8L4 7L14.5 7L14.2 8Z" fill="#ffffff" fill-rule="evenodd"/></g><g id="c22"><path d="M14 16L0 16L0 0L14 0L14 16Z" fill="#ff0000" fill-opacity="0" fill-rule="evenodd"/><path d="M4 12L4 4L12 8L4 12Z" fill="#6f7777" fill-rule="evenodd"/></g><g id="c24"><path d="M0 16L0 0L14 0L14 16L0 16Z" fill="#ff0000" fill-opacity="0" fill-rule="evenodd"/><path d="M11 5L7 13L3 5L11 5Z" fill="#6f7777" fill-rule="evenodd"/></g><g id="c26"><path d="M16 0L16 16L0 16L0 0L16 0Z" fill="#ff0000" fill-opacity="0" fill-rule="evenodd"/><path d="M3 5L3 3L9 3L9 5L15 5L15 14L2 14L2 5L3 5Z" fill="#000000" fill-opacity="0.2" fill-rule="evenodd"/><path d="M2 4L2 2L8 2L8 4L11.65 4L11.65 13L1 13L1 4L2 4Z" fill="url(#g16)" fill-rule="evenodd"/><path d="M14 13L10.65 13L10.65 4L14 4L14 13Z" fill="url(#g17)" fill-rule="evenodd"/><path d="M7 5L10.45 5L10.45 12L2 12L2 5L3 5L3 3L7 3L7 5Z" fill="url(#g18)" fill-rule="evenodd"/><path d="M13 5L13 12L9.45 12L9.45 5L13 5Z" fill="url(#g19)" fill-rule="evenodd"/><path d="M2 5L9.1 5L9.1 6L2 6L2 5Z" fill="#ffffff" fill-rule="evenodd"/><path d="M13 5L13 6L8.1 6L8.1 5L13 5Z" fill="#ffffff" fill-rule="evenodd"/><path d="M1 13L1 4L2 4L2 2L8 2L8 4L14 4L1 13Z" fill="#ffffff" fill-opacity="0.35" fill-rule="evenodd"/></g><g id="c29"><path d="M-5.75 -19.2L0 -11.05L5.75 -19.2L28.35 -19.2L12.15 -0.65L29.7 19.2L6.5 19.2L0 10.35L-6.45 19.2L-29.7 19.2L-12.05 -0.65L-28.35 -19.2L-5.75 -19.2ZM6.1 -0.6L18.4 -14.7L8.1 -14.7L0 -3.2L-8.1 -14.7L-18.4 -14.7L-6.05 -0.6L-19.65 14.7L-8.75 14.7L0 2.65L8.8 14.7L19.65 14.7L6.1 -0.6ZM2.95 -13.55L6.75 -17.25L13.75 -18.1L6.35 -18.1L2.95 -13.55ZM-24.5 -17.85L-20.8 -13.65L-22.3 -17.1L-12.05 -17.75L-10.8 -17.85L-24.5 -17.85Z" fill="#2182b8" fill-rule="evenodd"/></g><g id="c30"><path d="M17.55 -6.25Q17.35 -6.25 17.45 -6.35L17.55 -6.45L17.55 -6.25ZM21.5 -8.8L21.35 -8.7Q21.25 -8.5 21.45 -8.5Q26.3 -7.05 27.15 -4.7Q27.65 -3.4 26.9 -2.35L26.95 -2.15L27.2 -2.15L27.2 -2.2Q28.25 -3.4 28.25 -4.45L28.1 -5.2Q27.55 -6.85 24.55 -7.95L21.5 -8.8ZM22.25 -2.3L22.25 -2.25L22.05 -2.25L22.05 -2.4L22.25 -2.3ZM16.25 -7.05Q8.95 -7.55 -0.8 -5.9Q-10.55 -4.25 -17.05 -1.4Q-23.55 1.45 -22.95 3.85Q-22.4 6.2 -15.05 6.75Q-7.75 7.25 2 5.6Q11.7 3.9 18.2 1.1Q24.7 -1.8 24.15 -4.15Q23.5 -6.55 16.25 -7.05ZM-1.45 -8.95Q10.8 -10.95 19.9 -9.8Q28.95 -8.65 29.6 -4.95Q30.2 -1.25 21.95 2.8Q13.75 6.8 1.5 8.85Q-10.75 10.9 -19.85 9.7Q-28.95 8.5 -29.55 4.8Q-30.2 1.15 -21.95 -2.9Q-13.7 -6.9 -1.45 -8.95ZM-15.35 6.25L-15.3 6.05L-15 6.1L-14.9 6.2L-15.05 6.3L-15.35 6.25ZM-28.35 5.05Q-27.7 7.8 -20.15 8.95L-19.8 9L-19.6 8.85Q-19.6 8.7 -19.75 8.7Q-25.45 7.7 -26.7 4.85Q-27.4 3.3 -26.15 1.35L-26.15 1.15L-26.4 1.15L-27.45 2.15Q-28.45 3.4 -28.45 4.5L-28.35 5.05ZM-20.3 1.5L-20.5 1.35L-20.3 1.35L-20.3 1.5Z" fill="#2182b8" fill-rule="evenodd"/></g><g id="c32"><path d="M-29.8 -5Q-38 -5.55 -40.65 -9.35Q-41.55 -10.7 -41.25 -11.6Q-40.95 -12.55 -40 -11.95Q-37.55 -10.5 -34.85 -11.6Q-41.45 -15.3 -40.35 -19.75Q-40 -21.1 -38.9 -22.45L-37.9 -23.45L-37.85 -22Q-37.45 -20.2 -35.9 -18.55Q-30.95 -13.2 -16.15 -10.9Q-1.35 -8.65 5.45 -2.8Q8.9 0.1 9.35 2.55Q9.6 8.6 0.3 10.75L-9.8 11.05Q-13.2 10.25 -12.7 9.55Q-12.3 7.6 -12.95 8.5Q-13.65 9.35 -15.65 9.25Q-15.1 8.7 -16 7.2Q-16.35 7.85 -17.85 8.45Q-19.4 9.05 -18.9 8.05Q-18.2 6.65 -18.85 4.1Q-22.4 8.7 -23.6 7Q-21.95 5.05 -22.3 2.2Q-27.5 7.35 -31.4 3.5Q-29.5 3.65 -25.95 -0.6Q-34.2 1.05 -38.35 -2.05Q-39.75 -3.1 -39.8 -3.95Q-39.85 -4.8 -38.65 -4.1Q-35.55 -2.3 -29.8 -5ZM-20.05 -9.3Q-22 -9.35 -23.3 -10.75L-23.7 -10.9L-23.9 -10.45Q-23.75 -7.55 -19.65 -6.1Q-19.15 -5.85 -19.15 -5.5L-19.4 -5.15Q-19.8 -4.85 -19.65 -4.5Q-19.1 -3.1 -15.8 -3.65L-15.75 -3.25L-16 -2.8L-16.8 -2.3L-17.05 -2.1L-17.15 -1.65L-13 -1.5Q-12.45 -1.15 -13.2 -0.1L-13.25 0.15Q-12.8 0.95 -8.05 2.75Q-2.75 4.7 0.95 4.85Q4.9 4.95 6.15 2.45Q6.7 1.25 5.75 0.05Q4.25 -1.95 0.3 -4.1Q-7.55 -8.35 -20.05 -9.3Z" fill="#ffffff" fill-rule="evenodd"/></g><g id="c33"><path d="M11.15 1.7Q15.9 -0.1 16.35 -0.9L16.3 -1.15Q15.55 -2.2 16.1 -2.55L20.25 -2.7Q20.4 -2.95 20.15 -3.15L19.9 -3.35Q19.4 -3.55 19.1 -3.85L18.85 -4.3L18.9 -4.7Q22.2 -4.15 22.75 -5.55Q22.95 -5.9 22.5 -6.2L22.25 -6.55Q22.25 -6.9 22.75 -7.15Q26.85 -8.6 27 -11.5L26.8 -11.95Q26.6 -12.05 26.4 -11.8Q25.6 -10.9 24.3 -10.55L23.15 -10.35Q10.65 -9.4 2.8 -5.15Q0.3 -3.8 -1.4 -2.3L-2.65 -1Q-3.6 0.2 -3.05 1.4Q-1.8 3.9 2.15 3.8Q5.85 3.65 11.15 1.7ZM43.75 -10.4Q41.1 -6.6 32.9 -6.05L36.15 -4.9L41.75 -5.15Q42.15 0.95 29.05 -1.65L31.05 0.45Q33.3 2.55 34.5 2.45Q30.6 6.3 25.4 1.15L25.45 2.8Q25.65 4.75 26.7 5.95Q25.5 7.65 21.95 3.05L21.7 4.5Q21.55 6.15 22 7Q22.7 8.45 19.1 6.15L18.7 6.95Q18.4 7.85 18.75 8.2Q19.2 8.7 17.85 8.35Q16.55 8.05 16.05 7.45Q15.6 6.85 15.6 7.5L15.8 8.5Q12.15 11.8 2.8 9.7Q-3.1 8.35 -5.25 5Q-6.65 2.9 -6.25 1.5L-5.6 -0.1Q-4.5 -2.05 -2.35 -3.85Q4.45 -9.7 19.25 -11.95Q34.05 -14.25 39 -19.6Q41.5 -22.25 41 -24.5L42 -23.5Q43.1 -22.2 43.45 -20.8Q44.6 -16.35 37.95 -12.65L39.6 -12.3Q41.55 -12.1 43.1 -13Q44.1 -13.6 44.35 -12.65Q44.65 -11.75 43.75 -10.4Z" fill="#ffffff" fill-rule="evenodd"/></g><g id="c34"><path d="M17.45 -6.35L17.55 -6.45L17.55 -6.25Q17.35 -6.25 17.45 -6.35ZM21.5 -8.8L21.35 -8.7Q21.25 -8.5 21.45 -8.5Q26.3 -7.05 27.15 -4.7Q27.65 -3.4 26.9 -2.35L26.95 -2.15L27.2 -2.15L27.2 -2.2Q28.25 -3.4 28.25 -4.45L28.1 -5.2Q27.55 -6.85 24.55 -7.95L21.5 -8.8ZM22.25 -2.25L22.05 -2.25L22.05 -2.4L22.25 -2.3L22.25 -2.25ZM-1.45 -8.95Q10.8 -10.95 19.9 -9.8Q28.95 -8.65 29.6 -4.95Q30.2 -1.25 21.95 2.8Q13.75 6.8 1.5 8.85Q-10.75 10.9 -19.85 9.7Q-28.95 8.5 -29.55 4.8Q-30.2 1.15 -21.95 -2.9Q-13.7 -6.9 -1.45 -8.95ZM16.25 -7.05Q8.95 -7.55 -0.8 -5.9Q-10.55 -4.25 -17.05 -1.4Q-23.55 1.45 -22.95 3.85Q-22.4 6.2 -15.05 6.75Q-7.75 7.25 2 5.6Q11.7 3.9 18.2 1.1Q24.7 -1.8 24.15 -4.15Q23.5 -6.55 16.25 -7.05ZM-14.9 6.2L-15.05 6.3L-15.35 6.25L-15.3 6.05L-15 6.1L-14.9 6.2ZM-20.15 8.95L-19.8 9L-19.6 8.85Q-19.6 8.7 -19.75 8.7Q-25.45 7.7 -26.7 4.85Q-27.4 3.3 -26.15 1.35L-26.15 1.15L-26.4 1.15L-27.45 2.15Q-28.45 3.4 -28.45 4.5L-28.35 5.05Q-27.7 7.8 -20.15 8.95ZM-20.3 1.5L-20.5 1.35L-20.3 1.35L-20.3 1.5Z" fill="#2182b8" fill-rule="evenodd"/></g><g id="c36"><path d="M3.65 -0.05L10.85 7.15L4.75 7.15L0.05 2L-4.6 7.15L-10.85 7.15L-3.55 -0.05L-10.3 -7.15L-4.35 -7.15L0.05 -2.1L4.45 -7.15L10.5 -7.15L3.65 -0.05Z" fill="#2182b8" fill-rule="evenodd"/></g><g id="c37"><path d="M10.4 -7Q11.3 -6 11.35 -2.65L6.15 -2.65Q6.05 -3.8 5.7 -4.05L0 -4.5L-5.4 -3.95Q-6.2 -3.35 -6.15 -0.05Q-6.15 3.55 -5.45 4.2L-3.05 4.7L0 4.75L5.9 4.2Q6.25 3.9 6.25 2.3L-0.6 2.3L-0.6 -1.15L11.35 -1.15L11.2 4.8Q10.95 7.75 7.8 8.4L-0.4 8.85Q-7.9 8.8 -9.6 7.65Q-10.95 6.65 -11.2 4.2L-11.4 -0.3Q-11.4 -6.35 -9.45 -7.6Q-7.75 -8.8 0.5 -8.8Q8.9 -8.8 10.4 -7Z" fill="#2182b8" fill-rule="evenodd"/></g><g id="c38"><path d="M9.5 -4.5L-4.4 -4.5L-4.4 -2.05L8.75 -2.05L8.75 1.75L-4.4 1.75L-4.4 4.5L9.55 4.5L9.55 8.6L-9.55 8.6L-9.55 -8.55L9.5 -8.55L9.5 -4.5Z" fill="#2182b8" fill-rule="evenodd"/></g><g id="c39"><path d="M11.9 -8.55L11.9 8.6L2.85 8.6L-6.2 -4.2L-6.75 -4.2L-6.6 8.6L-11.95 8.6L-11.95 -8.55L-2.8 -8.55L6.15 4.2L6.7 4.2L6.6 -8.55L11.9 -8.55Z" fill="#2182b8" fill-rule="evenodd"/></g><g id="c40"><path d="M7.75 -7.3Q9 -6.3 9 -3.45L6.7 -3.45L6.7 -3.7Q6.7 -5.75 5.3 -6.25L0.65 -6.65L-5.65 -6.1Q-7.1 -5.6 -7.1 -3.75Q-7.1 -1.7 -5.65 -1.3L-1.5 -0.95L4.3 -0.9Q7.8 -0.9 8.8 0.65Q9.5 1.75 9.55 3.6Q9.55 6.8 7.55 7.75Q5.75 8.65 -1.4 8.65Q-6.5 8.65 -7.85 7.8Q-9.45 6.85 -9.4 4.2L-9.4 3.25L-7.2 3.25L-7.2 3.6Q-7.15 5.9 -6.1 6.3L0.35 6.75L5.6 6.3Q7.2 6.05 7.2 3.8Q7.2 1.75 6 1.35L-3.25 1.05Q-9.5 1.05 -9.5 -3.75Q-9.5 -6 -8.15 -7.15Q-7.1 -8 -4.45 -8.35L0.85 -8.65Q6.15 -8.65 7.75 -7.3Z" fill="#ffffff" fill-rule="evenodd"/></g><g id="c41"><path d="M9.75 -6.55L1.2 -6.55L1.2 8.6L-1.1 8.6L-1.1 -6.55L-9.75 -6.55L-9.75 -8.55L9.75 -8.55L9.75 -6.55Z" fill="#ffffff" fill-rule="evenodd"/></g><g id="c42"><path d="M10.15 -0.1L10 4.65Q9.7 7.75 6.9 8.3L0.05 8.65L-7 8.3Q-9.6 7.7 -9.9 4.95Q-10.1 3.85 -10.1 -0.1L-10.1 -8.55L-7.8 -8.55L-7.75 4.4Q-7.55 6.1 -5.65 6.35L-0.5 6.6Q6.5 6.6 7.3 5.65Q7.8 5.1 7.85 -0.1L7.85 -8.55L10.15 -8.55L10.15 -0.1Z" fill="#ffffff" fill-rule="evenodd"/></g><g id="c43"><path d="M9.15 -6.9Q10.65 -5.35 10.65 0Q10.65 5.4 8.8 7.2Q7.3 8.6 1.4 8.6L-10.6 8.6L-10.6 -8.55L1.25 -8.55Q7.55 -8.6 9.15 -6.9ZM7.25 -5.4Q6.5 -6.35 4.3 -6.55L-8.3 -6.55L-8.3 6.6L1.3 6.6L5.65 6.35Q8.25 5.75 8.25 -0.1Q8.25 -4.2 7.25 -5.4Z" fill="#ffffff" fill-rule="evenodd"/></g><g id="c44"><path d="M6.2 -6.3L-1 -6.55Q-6.5 -6.55 -7.5 -5.7Q-8.35 -4.85 -8.35 -0.15Q-8.35 4.85 -7.65 5.65Q-7.1 6.25 -4.6 6.5L0.3 6.6L6.35 6.25Q7.75 6 8.15 4.5L8.4 0L8.15 -4.6Q7.9 -6.05 6.2 -6.3ZM10.55 -3.85L10.7 0.05Q10.7 5.85 9.4 7.25Q8.05 8.65 1.85 8.65L-6.3 8.4Q-8.5 8.15 -9.45 7.15Q-10.7 5.7 -10.7 0Q-10.7 -6.2 -9 -7.45Q-7.95 -8.3 -4.95 -8.45L0.65 -8.65Q7.95 -8.65 9.35 -7.2Q10.3 -6.3 10.55 -3.85Z" fill="#ffffff" fill-rule="evenodd"/></g><g id="c45"><path d="M0.4 -3.35L-3.35 -2.9Q-3.85 -2.55 -3.8 -0.35L-3.7 2.25Q-3.55 3.05 -2.55 3.25L0.15 3.3L3.6 3Q3.95 2.75 4 1.75L4.05 1.4L5.1 1.4Q5.05 3.3 4.6 3.75Q3.9 4.4 0.6 4.4Q-3.55 4.4 -4.3 3.7Q-5 2.95 -5 0.15Q-5.05 -3.1 -4.2 -3.75Q-3.65 -4.25 -1.95 -4.3L0.45 -4.35Q3.8 -4.35 4.6 -3.65Q5 -3.15 5.05 -1.5L4 -1.5L4 -1.8Q3.9 -2.8 3.3 -3.1L0.4 -3.35Z" fill="#ffffff" fill-rule="evenodd"/></g><g id="c46"><path d="M3.15 -3.15L-0.5 -3.35L-3.8 -2.9Q-4.2 -2.5 -4.2 -0.1Q-4.25 2.45 -3.85 2.85L-2.3 3.25L0.15 3.3L3.2 3.15Q3.9 3.05 4.1 2.3L4.1 -2.3Q4.05 -3.1 3.15 -3.15ZM5.4 -1.95L5.45 0Q5.45 2.95 4.8 3.7Q4.1 4.4 0.95 4.4L-3.2 4.3Q-4.35 4.1 -4.75 3.6Q-5.45 2.9 -5.4 0Q-5.45 -3.1 -4.6 -3.75Q-4 -4.25 -2.5 -4.3L0.35 -4.35Q4 -4.35 4.7 -3.65Q5.2 -3.25 5.4 -1.95Z" fill="#ffffff" fill-rule="evenodd"/></g><g id="c47"><path d="M7.05 -4.35L7.05 4.35L5.85 4.35L5.85 -3.3L5.35 -3.3L0.5 4.35L-0.4 4.35L-5.35 -3.3L-5.8 -3.3L-5.8 4.35L-7 4.35L-7 -4.35L-4.65 -4.35L0.05 3L4.7 -4.35L7.05 -4.35Z" fill="#ffffff" fill-rule="evenodd"/></g><g id="c59"><path d="M154.95 -37.5L-153.5 -37.5Q-170 -37.5 -170 -21L-170 21Q-170 37.5 -153.5 37.5L154.95 37.5Q170 36.75 170 21L170 -21Q170 -36.75 154.95 -37.45L154.95 -37.5" fill="none" stroke="url(#g20)" stroke-width="3" stroke-linecap="round" stroke-linejoin="round"/><path d="M1.05 -37.5L154.95 -37.5L154.95 -37.45Q170 -36.75 170 -21L170 21Q170 36.75 154.95 37.5L33.5 37.5L1.05 -37.5Z" fill="url(#g21)" fill-rule="evenodd"/><path d="M33.5 37.5L-153.5 37.5Q-170 37.5 -170 21L-170 -21Q-170 -37.5 -153.5 -37.5L1.05 -37.5L33.5 37.5Z" fill="#000000" fill-rule="evenodd"/></g><g id="c218"><path d="M64 -160Q80.7 -152.15 96 -160Q100.45 -150.5 96 -149.5Q102.15 -148.8 96 -146.95Q103.35 -144.45 96 -142.05Q105.75 -136.3 109.05 -128Q109.95 -131 111.15 -128Q113.45 -130 115.95 -128Q117.95 -130 128 -128Q132.3 -116.75 128 -108.05Q134.45 -107 128 -106Q135.95 -104 128 -96Q139.95 -102 142.95 -96Q149.75 -101.7 160 -96Q158.45 -105 160 -106.75L174 -107.25Q186.5 -105.85 192 -96Q201.25 -98.65 203.7 -96Q209.2 -86.2 209.25 -75Q209.3 -67.3 204.15 -64Q202.95 -60.5 192 -64Q192.7 -53.75 192 -49Q179.95 -47.5 176.8 -46.35Q163.2 -41.3 149 -32Q127.5 -32.6 106 -32Q104.95 -28.5 96 -32Q102.1 -21.75 96 -14.9Q99.95 -13 96 -11.1Q98.95 -8.5 96 0Q94.25 9.5 96 15.05Q92.95 16.5 96 17.95Q91.5 23.05 96 32Q84.95 31 80.35 32Q77.45 36.85 74 32Q68.5 37 64 32Q58.3 40.5 64 44.05Q55.5 45 64 45.85Q51.9 49.3 49.85 52.95Q49 54.5 47.8 64Q44.8 59.25 32 64Q19.9 71.75 0 85.65Q1.3 88.75 0 96Q-5.5 85 0 83.6Q-8.55 78.8 -13.15 74.1Q-20.55 66.5 -32 64Q-41 70 -42.2 64Q-44.25 71.7 -44.4 75L-44.55 78L-45 110L-44.65 117.95Q-43.95 125.4 -47.95 128Q-51.15 135.4 -64 139.8Q-55.5 141.5 -64 143.25Q-57.5 144.5 -64 145.65Q-62.95 151.2 -64 160Q-74.15 173.85 -83 192Q-85 187.45 -96 192Q-108.55 186.25 -128 192Q-125.6 182.45 -128 177Q-125 158.5 -128 140Q-124.6 130.65 -128 128Q-142.85 118.9 -160 128Q-176.25 133.1 -192 128Q-186.15 120.7 -192 110.15Q-181.5 107 -180.45 96Q-178.8 98.9 -176.9 96Q-171.1 79.25 -160 64Q-156.4 46.65 -160 32Q-155.65 22.05 -160 13.85Q-149 12 -147.65 10.3Q-139.4 0.1 -128 -11.05Q-132 -13 -128 -15Q-132 -15.5 -128 -16.15Q-134 -17 -128 -17.5Q-136.5 -18 -128 -18.55Q-144.25 -21.3 -160 -32Q-164.7 -22.4 -171.9 -32Q-183.7 -27.5 -192 -32Q-180.5 -39 -178.9 -32Q-174.15 -40.05 -160 -42.65Q-167.5 -44 -160 -44.15Q-159.3 -44.45 -160 -48.3Q-154.5 -49 -160 -49.9Q-151.75 -52.75 -149.25 -64Q-146.25 -58.25 -143.25 -64Q-142 -62.5 -140.65 -64Q-134.4 -68.05 -128 -64Q-127.45 -74.55 -128 -76.85Q-129.85 -80.4 -128 -83Q-137 -84 -138.65 -85.4Q-142.05 -88.3 -146.55 -94.1L-146.35 -96Q-144.75 -92.95 -142 -96Q-140.5 -93 -139.15 -96Q-137.5 -94 -128 -96Q-121.5 -97.5 -117.9 -96Q-113.5 -100 -109.15 -96Q-106 -102.5 -96 -96Q-100.5 -104.5 -96 -106.55Q-91.45 -107.2 -96 -109Q-91.5 -115 -96 -128Q-92.3 -137.95 -95.95 -149.75Q-85.25 -149.15 -82.95 -148.15L-76.85 -145.35Q-75 -144.5 -64 -143.55Q-68.3 -140.95 -64 -139.05Q-58.5 -137.5 -64 -128Q-47.5 -132.5 -32 -128Q-23.15 -128.4 -19.25 -128Q-17.5 -134 -15.7 -128Q-6.4 -144.05 0 -149.45Q8 -151 11.25 -160Q18.3 -155.65 32 -160Q46.75 -152.2 64 -160Z" fill="#d8cccc" fill-rule="evenodd"/></g><g id="c245"><path d="M40.65 18.8L41.1 18.15L40.6 18.2L40.45 18.75L40.65 18.8ZM41.75 17.7L41.9 18.15L42.2 18.4L42.4 18.45L43.6 18L43.6 17.75L41.9 17.45L41.75 17.65L41.75 17.7ZM48 34L0 34L0 0L48 0L48 34ZM36.1 6.15L36.3 5.9L35.9 5.65L35.7 5.7L35.85 5.95L36.1 6.15ZM32.45 4.05L32.55 3.85Q31.95 3.15 31.2 3.45L30.95 3.55L31 3.7L32.45 4.05ZM30 3.1L30.65 3.5L30.8 3.3L30.35 2.95L30 3.1ZM35.2 4.8L35 4.9L35.4 5.15L35.4 4.85Q35.2 4.55 35.2 4.8ZM33.9 12.5Q34.4 12 33.8 11.25Q33 10.25 31.6 10.7L29.8 9.8L29.5 9.35Q28.55 8.35 27.2 8.85L27.05 8.65Q26.05 7.55 24.6 8.1Q23.65 7.3 22.3 7.85L21.8 8.15Q20.9 7.7 19.8 8.15Q18.8 8.55 18.8 9.15Q18 9.4 16.9 10.55L17.8 11.65L18.65 11.9L16 11.55L15.6 11.95L14.95 11.35L14.1 11.65L14.25 12.5L13.4 11.75L12.95 12Q13.45 12.4 13.9 12.6L14.05 12.95L11.35 14.2L10.85 14.3Q10.2 15.1 9.6 15.5L9.95 16.1L10 16.15L10.1 16.65Q9.05 17.25 9.8 18.2Q10.15 18.55 10.6 18.75L10.6 18.85L9.8 19.1Q9.05 19.35 8.8 19.75L8.75 19.35L8.25 19.4Q8.15 19.5 8.2 20.1Q8.2 20.7 8.5 21L8.7 20.95L8.8 20.45L9 20.85Q10.1 21.85 11.6 21.25L11.7 21.2L12.2 21.85L12.3 21.95Q11.7 22.45 12.35 23.25Q13 23.95 13.95 23.9Q12.45 25.45 11 27.45L11.45 27.65L14.65 23.95Q16.4 25.15 18.85 25.7L18.95 25.8Q20 26.85 20.75 26.45Q21.55 25.95 22.45 24.35Q23.35 22.75 25.65 26.15L25.9 26.35Q26.6 26.05 27.25 25.85L29.7 25.05L30.9 24.55L32.55 23.95L32.25 23.75L32.15 23.6Q30.8 22 33.5 20.9Q34.7 20.4 36 20.05Q37.25 19.4 36.45 18.45L36.05 18.05Q36.2 16.85 35.85 15.65Q36.4 15.1 35.8 14.4Q35.4 13.95 35 13.85L34.4 13.05L33.9 12.5ZM32.15 9.55L32.25 9.6L31.8 9.3L32.15 9.55ZM37.4 7.4L37.4 7.55L37.7 7.55L37.75 7.35L37.4 7.4ZM22 3.65L21.5 3.25Q21.35 3.4 21.45 3.8L22 3.65ZM27.85 7.05L27.6 7.2L27.5 7.3L27.75 7.45L28.25 7.25L27.85 7.05ZM37.4 15.55L37.75 15.85L38 15.9Q37.8 15.35 38.1 14.65L37.75 14.7Q36.95 15 37.4 15.55ZM32.3 25.35L33.35 24.45L32.75 24.1Q31.65 25.05 31.6 25.45L32.3 25.35ZM9.55 8.15L10.9 8.05L10.4 8Q10 7.8 9.55 8Q8.75 8.3 9.55 8.15ZM6.7 12.05Q7.35 12.95 6.4 10.3L5.8 10.5L6.7 12.05ZM5.35 14.75L4.4 15.5L4.8 15.65L5.05 15.45L6 14.5L5.95 14.2L5.35 14.75ZM8.65 18.25Q9.1 17.5 8.65 16.95Q8.4 16.65 8.4 16.9Q8.2 17 8.2 17.5Q8.1 17.95 8.3 18.15L8.65 18.25ZM13.3 12.7Q13.15 12.7 12.85 12.85L13.2 12.95L13.3 12.7ZM12.6 12.8L13.05 12.75L13.1 12.5L12.6 12.55L12.6 12.8ZM12.55 13.25L12.9 13.35L13 13.1Q12.8 13.1 12.55 13.25ZM19.4 27.4L19.3 27.45L19.15 27.55L19.3 27.6L19.6 27.6L19.4 27.4ZM18.9 27.35L19.3 27.45L19.4 27.3L18.9 27.35ZM18.4 27.45L19 27.55L18.6 27.05L17.6 26.05L17.35 26.2L17.4 26.3L18.4 27.45ZM15.55 27.2L16.35 27.75L16.45 27.65L16 27L15.3 26.45Q15.05 26.65 15.55 27.2ZM17.5 27.45L17.15 26.9L16.65 26.45L16.4 26.55L16.9 27.55L17.5 27.45ZM15.9 28.8L15.85 28.4L15.75 28.25L15.4 28Q14.95 27.85 14.5 28Q13.95 28.25 14 28.6L15.5 29.15L15.9 28.8ZM20.1 29.7L19 29.95Q18.55 30.15 18.85 30.1L19 30.2L20.05 29.95L20.1 29.7ZM18 30.85L17.5 30.95L17.85 31.05L18 30.85ZM32.2 26.55L32.2 26.5L32.1 26.55L32.2 26.55ZM33.35 24.9Q32.95 24.95 32.6 25.65L33.1 25.4L33.35 25.3L33.35 24.9ZM24 30.7L24.3 30.95L24.25 31L24.65 31.1L24.75 30.9L24.65 30.9L24.4 30.5L24.25 30.35L23.8 30.3L24 30.7Z" fill="#000000" fill-rule="evenodd"/></g><g id="c246"><path d="M41.5 9.7L41.85 9.8L42.05 9.7L41.6 9.4L41.5 9.7ZM45.9 14.05L45.35 14.25L47.1 14.25L47.4 14.05L45.9 14.05ZM42.6 16.2Q43.3 16 44.2 15.05Q43.75 15 43.1 15.45L42.5 16Q42.5 16.35 42.6 16.2ZM44.6 14.9L44.8 14.65L44.3 14.55Q44.1 14.35 44.1 14.7L44.6 14.9ZM41.7 14.25L43.6 14.25L43.05 14L41.85 13.95L41.6 13.95L41.6 14.1Q41.6 14.45 41.7 14.25ZM42.3 18.4L42.55 18.3L42.85 18.45L42.95 18.35L42.95 18.3L42.7 18.25Q42.95 18.1 43.3 18Q40.15 16.65 39.1 14.2Q41.7 13.4 41.75 12.05L41.05 12.65Q39.85 12.05 38.45 11.9L37.4 12.05L36.45 11.9L36.25 11.95L35.3 10.9Q34.55 10.8 34.25 10.35L34 9.7Q34 9 34.55 8.7L34.35 7.75L34.7 7.55L34.75 7.2L34.4 7.5L34.9 6.05L28.5 5.35Q28.3 6.3 26.65 6.3Q24.85 6.3 24.85 5.05L24.9 4.8Q24.45 5.15 23.4 5.15L22.75 5.1Q22.15 5.45 21.85 6.15L15.3 5.25L14.95 4.45L14 4.2Q13.1 4.55 13.3 5.15L13.6 5.9L14.4 6L17.55 8.4L14.05 8.55L13.4 7.5L12.9 8.55L12.75 8.45L12.7 8.45L12.55 8.7L13.25 8.75L12.65 9.25L11.65 8.6L11.95 8.55L11.55 8.5L10.5 7.8L10.95 8.45L10.6 8.45L10.45 8.4L10.85 8.8L10.95 8.75L11 8.85L11.1 8.75Q12.1 10.45 12.35 12.3L12.45 13.35L12.95 13.35L12.95 14.85L11.8 14.85Q10.85 15.4 8.6 14.1L6.3 14.7L7.6 15.55Q11.85 18.3 7.05 18.75L7.45 21.15L7.95 21.15L7.35 21.65Q7.1 21.9 7 22.25L8.6 21.5L8.6 20.45L8.9 20.35L10.1 20.35L10.1 19.65L10.7 19.65L10.7 19.1L13.3 19.05Q13.1 19.2 13.3 19.35L13.3 20.65L13.55 20.45L13.7 20.9L14.45 21.05L14.3 20.8L14.7 20.35L14.5 21.1Q15.1 21.4 15.1 22.1L15.05 22.6Q15.7 22.7 16.1 23.1L18 23.1L18 24.3Q18.55 24.55 18.9 25.1L19.8 24.55Q19.8 23.4 21.65 23.35Q21.9 23.15 22.35 23.1L23 22.65L23.15 23Q24.7 23.05 24.85 24.25L24.5 25.1L24.5 25.45L25.15 26.4L25.5 26.4L25.5 26.9L27.1 28.95L27.1 28.3L27.55 28.25L27.6 28.15L27.55 28.05Q27.15 25.85 30.65 23.95L31.7 24.5L32.9 24.75L32.9 24.95L32.5 24.85L32.7 25.1L32.9 25L32.9 26.6L33.3 26.65L33.9 25.45L34 26L31.65 28.45L35.5 25.6L35.9 25.05L36.2 25.5L36.9 25.65L36.15 24.65L36.5 24.35L36.3 22.7L35.9 22.7L35.7 22.7L35 23.5L35.1 22.65L34.2 22.1L34 21.45Q34 20.25 35.75 20.2L35.65 20.05L39.85 19.3L39.9 19.35L42.9 19.35L43.1 19.35L42.95 18.95L42.95 18.85L41.7 18.9L42.3 18.4ZM40 22L40.8 22.05L41.3 21.75L40.9 21.7L40.3 21.8L40.6 21.4L40.4 21.2L39.85 21.75L39.85 21.8L40 21.85L40.25 21.85L39.85 21.95L39.85 22L40 22ZM48 34L0 34L0 0L48 0L48 34ZM31.85 4.05L34 4.7L34.2 4.55L33.35 4.1L32 3.75Q31.85 3.75 31.8 3.85L31.85 4.05ZM38.05 8.85Q37.8 9.1 37.8 9.6L38.3 9.7L38 9.1L38.05 8.85ZM39.25 10.8L39.25 11L39.5 10.8L39.65 10.75L39.2 10.45L39.25 10.8ZM30.8 3.65L29.9 3.65L29.2 3.85L30.2 4Q30.5 4 30.8 3.65ZM27 3.2L27.25 3.45L27.5 3.25L27 3.2ZM27.8 3.65L28 3.5L27.6 3.45L27.8 3.65ZM19.4 4.7Q19.95 5.2 21.3 5.2L21.5 5.05L19.75 4.6L19.5 4.6L19.4 4.7ZM21.8 5.3L22 5.15L21.55 5.1L21.8 5.3ZM18.5 4.55L18.75 4.4L18.3 4.35L18.5 4.55ZM21.1 3.5Q19.6 3.4 19.2 3.9L19.35 4.05Q20.15 4.05 21.1 3.5ZM6.95 6.2L6.8 5.8Q6.3 5.9 6.3 6.15L6.35 6.3L6.95 6.2ZM7.5 3.05Q7.15 3.05 7.15 3.25L7.5 4.3L7.8 4.3L7.8 3.8L7.5 3.05ZM9.3 4.95Q9.3 4.6 9.1 4.85L8.8 4.85L9 5.15L9.3 4.95ZM8.75 4.3L8.3 4.2L8.55 4.4L8.75 4.3ZM5.4 6.95Q5.65 7.35 4.85 7.9L4.1 8.45L4.35 8.6L5.05 8.3Q5.3 7.65 5.8 7.3L5.7 6.95L5.4 6.95ZM2.7 14.35L3.05 14.35L2.9 14.1L2.7 14.35ZM4.95 19.75L4.5 19.3L4.2 19.35L4.2 19.4L4.6 19.6Q3.9 19.95 3.9 20.55Q3.9 20.9 4 20.75L4.65 20.3L4.95 19.75ZM12.8 20.9L12.4 20.9L12.4 20.95L12.8 20.9ZM11.1 21.2L11.1 21.4L11.55 21.3L11.55 21.2L11.1 21.2ZM0.9 25.85L1.1 25.7L0.6 25.65L0.9 25.85ZM8.35 28.1L7.9 28.05L8.1 28.25L8.35 28.1ZM32.1 27.3L32.4 27.4L32.6 27.2L32.2 27.1L32.1 27.3ZM31.1 28.1L30.6 28.05L30.85 28.25L31.1 28.1ZM30.5 27.65L30.1 27.55L30.3 27.75L30.5 27.65ZM30.4 29.1L29.2 29L29 29L29 29.15L30.2 29.3L30.4 29.1ZM24.9 31L24.4 30.95L24.65 31.15L24.9 31Z" fill="#000000" fill-rule="evenodd"/></g><g id="c247"><path d="M43.9 18L43.7 18.2L43.8 18.25L43.9 18ZM45.1 20.3L45 20.35L44.9 20.55L45 20.8L45.15 20.85L45.3 20.8L45.4 20.55L45.1 20.3ZM48 34L0 34L0 0L48 0L48 34ZM32.65 5L32.9 4.95L33 4.85L32.9 4.75L32.65 4.7L32.4 4.75L32.3 4.85L32.4 4.95L32.65 5ZM31.6 11.45L31.65 11L30.7 10.55Q30.05 10.2 30.1 9.55L30.3 9L29.4 8.55L30.15 7.55L28.35 6.55L26.7 6.35L26.6 6.65L26.75 8.5L25.2 9.55L24.4 10.55L24.1 10.35L24.1 9.1L23.4 8.75L22.7 9L22.4 9.65Q17.35 8.85 15.7 11.65Q18.1 12.25 16.9 13.8L16.15 14.2Q15.1 14.25 14.3 13.7Q13.5 13.15 13.85 12.3Q12.3 12.45 11.7 13.35Q11.35 14 11.45 14.65L12.3 15.15L12.7 15.55L12.9 16.05Q13.8 16.05 14.25 16.4Q15.4 17.35 14.2 17.95Q11.85 19.15 11.3 17.15L9.65 16.75L8.9 18.4L7.65 17.95L7.2 18.1L6.6 19.5Q6.5 19.85 6.55 20.25L7.05 20.4L9.1 19.7L9.5 20.35Q10.55 22.1 13.1 22.85L12.65 24L13.75 24.75L10.9 25.8L11.5 25.85L14.1 25.4Q16.9 25.3 16.3 23.15L18.3 22.8L19.1 23.3Q18.55 24.35 19.7 25.15Q20.8 25.9 22.2 25.95L22.7 25.4L23.45 24.15L24.05 24.1L24.8 25Q25.55 25.7 26.9 25.9L25.7 29.15L26.2 29.35L26.5 28.75L26.9 28.65L26.55 28.55L27.3 27.65L27.85 27.45L27.25 27.35L27.05 27.05L27.5 25.85L28.35 25.35L28.6 25.2L29.3 24.55L29.9 24.45L30.95 24.1L31.9 23.55L33.25 23.45L34.5 23.1L35 23.35L36.05 23.15L36.45 23.1L37.4 22.8L37.75 22.2L36.1 20.85L34.95 19.1L35.5 18.65L36.85 19.3Q37.75 19 38.35 18.2L38.9 17.45Q38.5 17 37.6 17L35.9 17.2L35.4 16.65L35.7 15.7L35.7 15.05L36.55 15.65L35.45 14.4L35.3 14.05L35.25 14.15L35.1 14.25L35.6 15Q35.65 16.4 33.85 16.3Q29.55 15.95 32.7 13.95Q30.5 14.05 30.5 12.5Q30.5 12 30.9 11.7L31.6 11.45ZM34.55 10.65L34.65 10.3L34.55 10L34.3 9.85L34.05 10Q33.9 10.1 33.9 10.3L34.05 10.65L34.3 10.75L34.55 10.65ZM22.15 9.05Q22.7 8.6 22.7 8.05Q22.7 7.5 22.15 7.15Q21.55 6.7 20.75 6.7Q19.95 6.7 19.4 7.15Q18.8 7.5 18.8 8.05Q18.8 8.6 19.4 9.05Q19.95 9.4 20.75 9.4L22.15 9.05ZM39 14.3L38.5 14.3L38.7 14.5L39 14.3ZM38.95 15.05L38.85 15.2L38.95 15.35L39.25 15.4L39.5 15.35L39.65 15.2L39.5 15.05L39.25 14.95L38.95 15.05ZM35.65 12.75L35.9 12.55L35.45 12.55L35.65 12.75ZM37.1 15.15L37.9 15.45L37.45 15.15L37.1 15.15ZM34.7 13.55L34.9 13.8L35.1 13.55L34.7 13.55ZM34.4 24.9L33.6 24.45Q32.55 24.05 31.9 24.6Q29.1 26.85 33.5 26.95L33.25 26.45Q32.95 25.45 34.4 24.9ZM38.2 21.95L38.1 21.55L38.5 19Q36.9 20.5 38.05 22.3L38.5 22.2L38.65 21.95L38.2 21.95ZM38.25 23.1L37.95 23Q37.8 23 37.7 23.1L37.6 23.25L37.7 23.45L37.95 23.5L38.25 23.45L38.3 23.25L38.25 23.1ZM37.7 24.1L37.05 24L36.75 24.05Q36.15 24.25 36.7 24.3L37.7 24.1ZM38.05 24Q38.1 23.45 37.95 23.9L38.05 24ZM11.75 8.5L11.65 8.6Q11.5 9.9 12.35 10.05L12.35 9.8Q12.5 9 11.75 8.5ZM15.7 9.15L15.3 9.15L15.5 9.35L15.7 9.15ZM5.2 8.7L5.7 8.8L6.2 8.35L5.2 8.7ZM2.6 10.75L4.6 10.45L3.8 10.35L2.6 10.75ZM10.5 12.2Q9.85 11.75 8.9 11.75Q8 11.75 7.35 12.2Q6.7 12.65 6.7 13.3Q6.7 13.9 7.35 14.4Q8 14.85 8.9 14.85Q9.85 14.85 10.5 14.4Q11.15 13.9 11.15 13.3Q11.15 12.65 10.5 12.2ZM4.2 21.55L4.35 21.4L4.05 21.4L4.2 21.55ZM6.6 22L6.15 22L6.15 22.4L6.6 22.4L6.6 22ZM8.35 23.45L8.55 23.65L8.8 23.45L8.35 23.45ZM19.35 28.4Q19.85 28.05 19.85 27.55Q19.85 27.05 19.35 26.7Q18.85 26.35 18.1 26.35Q17.4 26.35 16.9 26.7Q16.4 27.05 16.4 27.55Q16.4 28.05 16.9 28.4L18.1 28.7L19.35 28.4ZM15.85 27.4L16.1 27.2L15.6 27.2L15.85 27.4ZM9.8 25.95L9.7 25.95Q8.5 26.3 9 26.55L9.8 25.95ZM7.3 26.5L7.5 26.65L7.7 26.5L7.3 26.5ZM28.15 27.2L27.85 27.2L28 27.3L28.15 27.2ZM29.5 26.65L29.7 26.45L29.4 26.45L29.5 26.65ZM27.45 28.6L27.5 28.4L27.45 28.25L27.3 28.15L27.1 28.25L27.05 28.4L27.1 28.6L27.3 28.65L27.45 28.6ZM24.55 28.05L24.15 27.8L25.1 27.55L25.1 27.15L23.75 27.6L23.4 27.9L23.85 28.2L24.55 28.05ZM23.25 28.85L22.1 28.55L21.9 28.85L24.7 28.95L24.8 28.7L25.65 28L25.05 27.85L23.25 28.85ZM22.25 28L22.85 28L22.85 27.05L22.25 27.05L22.25 28Z" fill="#000000" fill-rule="evenodd"/></g><g id="c248"><path d="M48 34L0 34L0 0L48 0L48 34ZM41.8 29.35L42.75 28.9L42.65 28.5L41.9 28.95L41.8 29.35ZM38.7 12.3L44.25 13.6L44.85 12.85Q42.3 11.85 39.25 11.6L38.7 12.3ZM32.4 3.8L33.95 3L34.25 2.6L32.4 3.8ZM35 10.85L34.95 10.85L34.7 10.75L34.55 10.55L34.8 10.05Q35.7 8.35 34.4 7L30.65 6.7L29.85 8.7L29.6 8.35L29.85 8L29.6 7.35L28.95 7.2L28.35 6.45L29.25 6.3L29.65 5.25Q29.85 4.5 28.95 4.25L28.8 4L28.95 3.6L28.95 2.8L28.45 2.6L27.55 2.75L27 4.1L27.45 4.95L27.15 5.3L25.75 6.1L25.25 6.05L24.65 6.65L23.25 6.85Q21.8 6.65 21.75 5.55L21.15 5.65Q19.2 5.95 18.85 4.55Q14.2 6.4 12.65 10.25L10.9 10.65L11.9 10.85Q13.6 11.45 13 12.55L11.85 13.1L12.2 13.65Q12.45 16.15 9.25 14.85L8.45 14.8Q3.4 19.25 11.7 19.5Q16.5 18.55 18.75 22.5L18.45 23.3L21.85 23.9L23.55 27.65Q24.6 25.75 24.45 23.65L26.9 22.75L29 24.8L31.6 25.35L32.6 28.1L33.75 26.3L33.3 24.95Q35.65 25.2 37.55 24.15L38.4 24.8L39.9 24.6L40.45 24.1Q41.15 23.3 40.3 22.5Q41.3 20.95 40.85 19.25L40.3 19.3Q37.8 19.3 38.35 17.5L37.4 17.4Q33.15 16.05 37.85 14.85L37.7 14.25Q37.25 13.2 35.8 12.7L35.25 11.8L36.45 11.7L36.65 11.25L36.4 10.75L35.15 10.7L35 10.85ZM26 2.45L25.05 3.85L25.85 3L26 2.45ZM13.6 3.9L13.3 4.2Q13.05 4.55 13.35 4.9L14.7 4.95L14.95 4.55Q14.2 4.4 13.6 3.9ZM3.55 7.25L8.5 8.85L9.15 8.1L3.1 6L3.35 6.25L3.55 7.25ZM8.15 21.45L7.45 22.2L9.85 22.2L10.45 21.5L8.15 21.45ZM4.65 20.85L4.15 20.85L4.4 21.1L4.65 20.85ZM10.45 18.1Q9.85 17.75 9.85 17.2Q9.85 16.7 10.45 16.35Q10.95 15.95 11.7 15.95L14.25 16.35Q15.95 16.7 15.95 17.2Q15.95 17.75 14.25 18.1L11.7 18.5Q10.95 18.5 10.45 18.1ZM17.95 29.05L17.5 29.05L17.7 29.25L17.95 29.05ZM16.4 27.95L16.55 28.05L16.85 28L16.4 27.95ZM19.55 30.45L19.2 30.5L18.25 30.45L17.85 30.95L17.85 31.5L18.65 31.65L19.45 31.35L19.4 31.45L19.95 31.25L19.95 30.65L19.55 30.45ZM19.55 29.55L19.15 29.55L19.35 29.8L19.55 29.55ZM32.7 28.4L32.6 28.75Q33.85 30.15 35.75 31L35.65 30.75Q34.3 29.5 32.7 28.4Z" fill="#000000" fill-rule="evenodd"/></g><g id="c250"><path d="M17.5 -4.95Q50.9 -4.9 74.8 -3.55Q100 -2.05 100 0Q100 2.1 74.8 3.55Q50.9 4.95 17.5 5L16.8 5Q9.85 5 4.9 3.55Q0 2.1 0 0Q0 -2.05 4.9 -3.55Q9.85 -5 16.8 -5L17.5 -4.95Z" fill="#ffffff" fill-opacity="0.2" fill-rule="evenodd"/><path d="M8.35 -3.3L8.65 -3.25L36.15 -2.25Q48.25 -1.2 48.25 0.25Q48.25 1.75 36.15 2.75L8.65 3.8L8.35 3.8Q5 3.8 2.65 2.75Q0.25 1.75 0.25 0.25Q0.25 -1.2 2.65 -2.25Q5 -3.3 8.35 -3.3Z" fill="#ffffff" fill-opacity="0.2" fill-rule="evenodd"/></g><g id="c251"><path d="M12.9 -5.95L35.95 -4.65Q55.8 -3.65 77.4 -3.65Q99 -3.65 99 -0.55Q99 2.55 74.7 3.15L33.7 4.8L13.35 6Q9.75 6.15 4.85 4.35Q0 2.55 0 -0.05Q0 -2.6 4.85 -4.4Q9.75 -6.25 12.9 -5.95Z" fill="#ffffff" fill-opacity="0.2" fill-rule="evenodd"/><path d="M5 -4.6L10.7 -3.6L29.5 -2.4Q43.25 -1.95 43.25 0.1Q43.25 2.2 33.2 2.3L15.95 2.9L8.5 2.45Q8.25 1.5 4.15 1.85Q0 2.2 0 0.1Q0 -1.95 2.1 -3.45Q4.25 -4.9 5 -4.6Z" fill="#ffffff" fill-opacity="0.2" fill-rule="evenodd"/></g><g id="c252"><path d="M14.75 -4.3L33.85 -5.4L73.9 -3.7Q97.75 -1.55 98 0.4Q98.25 2.3 78.15 3.8L38.15 5.45Q18.3 5.6 15.15 5.4Q12 5.15 6 3.75Q0 2.3 0 -0.1Q0 -2.5 5.9 -3L14.75 -4.3Z" fill="#ffffff" fill-opacity="0.2" fill-rule="evenodd"/><path d="M6.6 -2.6L6.85 -2.6L29.35 -1.5Q39.25 -0.35 39.45 0.95Q39.6 2.25 30.65 2L13.25 2.75Q4.8 3.75 3.1 2.6Q1.4 1.4 1.15 0.95L0.45 0.05Q0 -0.35 1.9 -1.5Q3.85 -2.6 6.6 -2.6Z" fill="#ffffff" fill-opacity="0.2" fill-rule="evenodd"/></g><g id="c257"><path d="M15 15L-15 15L-15 -15L15 -15L15 15Z" fill="url(#p22)" fill-rule="evenodd"/></g><g id="c259"><path d="M21.2 0L14.65 6.55Q16 3.55 16 0Q16 -3.55 14.7 -6.5L21.2 0Z" fill="#000000" fill-rule="evenodd"/></g><g id="c262"><path d="M-255.95 -255.95L255.95 -255.95L255.95 255.95L-255.95 255.95L-255.95 -255.95Z" fill="url(#p23)" fill-rule="evenodd"/></g><g id="c50"><g><g fill="#ffffff" fill-rule="evenodd"><path transform="translate(106 11)" d="M4.05 -7.16L0.76 -7.16L0.76 0L4.05 0Q4.64 0 5.37 -0.2Q5.9 -0.34 6.36 -0.76Q6.83 -1.19 7.09 -1.82Q7.35 -2.46 7.35 -3.6Q7.35 -4.34 7.17 -4.99Q7 -5.64 6.61 -6.14Q6.22 -6.63 5.62 -6.89Q5.02 -7.16 4.05 -7.16ZM2.97 -1.63L2.97 -5.54L3.53 -5.54Q4.38 -5.54 4.76 -5.12Q5.13 -4.7 5.13 -3.56Q5.13 -2.7 4.96 -2.31Q4.79 -1.93 4.5 -1.78Q4.21 -1.63 3.52 -1.63L2.97 -1.63Z"/><path transform="translate(113.8 11)" d="M2.37 -2.1L6.36 -2.1L6.36 -2.32Q6.36 -3.35 6.02 -3.99Q5.68 -4.63 5.04 -4.97Q4.39 -5.3 3.28 -5.3Q1.91 -5.3 1.13 -4.55Q0.35 -3.8 0.35 -2.58Q0.35 -1.73 0.74 -1.09Q1.13 -0.46 1.72 -0.17Q2.31 0.12 3.34 0.12Q4.53 0.12 5.16 -0.22Q5.8 -0.56 6.25 -1.34L4.29 -1.52Q4.1 -1.29 3.94 -1.2Q3.68 -1.05 3.38 -1.05Q2.92 -1.05 2.63 -1.39Q2.43 -1.62 2.37 -2.1ZM4.03 -3.88Q4.28 -3.63 4.34 -3.05L2.38 -3.05Q2.43 -3.52 2.61 -3.75Q2.89 -4.13 3.36 -4.13Q3.77 -4.13 4.03 -3.88Z"/><path transform="translate(120.45 11)" d="M2.22 -1.63L0.25 -1.44Q0.42 -0.69 1.03 -0.29Q1.63 0.12 3.05 0.12Q4.05 0.12 4.64 -0.13Q5.22 -0.39 5.49 -0.81Q5.76 -1.24 5.76 -1.68Q5.76 -2.13 5.51 -2.5Q5.25 -2.87 4.77 -3.07Q4.28 -3.27 3.29 -3.38Q2.64 -3.46 2.44 -3.55Q2.25 -3.65 2.25 -3.84Q2.25 -4.01 2.4 -4.14Q2.55 -4.25 2.89 -4.25Q3.22 -4.25 3.46 -4.1Q3.63 -3.98 3.7 -3.73L5.59 -3.92Q5.39 -4.42 5.1 -4.72Q4.8 -5.02 4.36 -5.16Q3.92 -5.3 2.99 -5.3Q2.11 -5.3 1.59 -5.12Q1.06 -4.94 0.77 -4.57Q0.47 -4.19 0.47 -3.68Q0.47 -3.21 0.75 -2.85Q1.02 -2.49 1.43 -2.33Q1.83 -2.18 2.86 -2Q3.55 -1.88 3.72 -1.79Q3.94 -1.67 3.94 -1.46Q3.94 -1.27 3.77 -1.14Q3.55 -0.97 3.15 -0.97Q2.78 -0.97 2.56 -1.12Q2.34 -1.27 2.22 -1.63ZM0.25 -1.44L0.25 -1.44Z"/><path transform="translate(126.55 11)" d="M2.66 -7.16L0.67 -7.16L0.67 -5.81L2.66 -5.81L2.66 -7.16ZM2.66 -5.19L0.67 -5.19L0.67 0L2.66 0L2.66 -5.19Z"/><path transform="translate(129.9 11)" d="M6.07 -5.19L4.21 -5.19L4.21 -4.42Q3.87 -4.89 3.48 -5.1Q3.08 -5.3 2.48 -5.3Q1.53 -5.3 0.94 -4.67Q0.36 -4.03 0.36 -2.82Q0.36 -1.76 0.81 -1.12Q1.45 -0.21 2.49 -0.21Q3.02 -0.21 3.48 -0.45Q3.77 -0.61 4.07 -0.96L4.07 -0.17Q4.07 0.4 3.86 0.63Q3.64 0.86 3.21 0.86Q2.88 0.86 2.66 0.71Q2.51 0.61 2.44 0.34L0.51 0.12Q0.5 0.28 0.5 0.38Q0.5 1.17 1.08 1.64Q1.67 2.1 3.23 2.1Q3.91 2.1 4.44 1.98Q4.97 1.86 5.32 1.59Q5.66 1.31 5.87 0.87Q6.07 0.43 6.07 -0.06L6.07 -0.29L6.07 -5.19ZM2.58 -1.84Q2.34 -2.11 2.34 -2.67Q2.34 -3.31 2.57 -3.58Q2.79 -3.86 3.17 -3.86Q3.55 -3.86 3.82 -3.56Q4.08 -3.26 4.08 -2.7Q4.08 -2.13 3.83 -1.85Q3.58 -1.57 3.21 -1.57Q2.82 -1.57 2.58 -1.84ZM2.34 -2.67L2.34 -2.67Z"/><path transform="translate(136.55 11)" d="M2.45 -5.19L0.6 -5.19L0.6 0L2.59 0L2.59 -2.49Q2.59 -3.2 2.81 -3.47Q3.04 -3.75 3.4 -3.75Q3.73 -3.75 3.91 -3.54Q4.09 -3.34 4.09 -2.85L4.09 0L6.08 0L6.08 -3.3Q6.08 -4.32 5.62 -4.81Q5.15 -5.3 4.33 -5.3Q3.72 -5.3 3.29 -5.08Q2.87 -4.86 2.45 -4.34L2.45 -5.19Z"/><path transform="translate(143.2 11)" d="M2.37 -2.1L6.36 -2.1L6.36 -2.32Q6.36 -3.35 6.02 -3.99Q5.68 -4.63 5.04 -4.97Q4.39 -5.3 3.28 -5.3Q1.91 -5.3 1.13 -4.55Q0.35 -3.8 0.35 -2.58Q0.35 -1.73 0.74 -1.09Q1.13 -0.46 1.72 -0.17Q2.31 0.12 3.34 0.12Q4.53 0.12 5.16 -0.22Q5.8 -0.56 6.25 -1.34L4.29 -1.52Q4.1 -1.29 3.94 -1.2Q3.68 -1.05 3.38 -1.05Q2.92 -1.05 2.63 -1.39Q2.43 -1.62 2.37 -2.1ZM4.03 -3.88Q4.28 -3.63 4.34 -3.05L2.38 -3.05Q2.43 -3.52 2.61 -3.75Q2.89 -4.13 3.36 -4.13Q3.77 -4.13 4.03 -3.88Z"/><path transform="translate(149.85 11)" d="M6.06 0L6.06 -7.16L4.05 -7.16L4.05 -4.68Q3.76 -4.99 3.38 -5.15Q3 -5.3 2.54 -5.3Q1.59 -5.3 0.97 -4.62Q0.35 -3.94 0.35 -2.65Q0.35 -1.49 0.91 -0.69Q1.47 0.12 2.53 0.12Q3.06 0.12 3.49 -0.11Q3.81 -0.28 4.2 -0.77L4.2 0L6.06 0ZM3.81 -3.52Q4.07 -3.22 4.07 -2.61Q4.07 -1.93 3.81 -1.64Q3.56 -1.34 3.18 -1.34Q2.82 -1.34 2.58 -1.63Q2.34 -1.93 2.34 -2.56Q2.34 -3.24 2.57 -3.53Q2.81 -3.82 3.15 -3.82Q3.55 -3.82 3.81 -3.52ZM4.07 -2.61L4.07 -2.61Z"/><path transform="translate(159.85 11)" d="M7.93 -3.13L6.38 -3.48Q6.27 -3.14 6.12 -2.84Q5.56 -3.29 5.03 -3.81Q5.66 -4.23 5.91 -4.44Q6.15 -4.65 6.33 -4.99Q6.5 -5.32 6.5 -5.69Q6.5 -6.34 5.93 -6.81Q5.37 -7.28 4.16 -7.28Q2.98 -7.28 2.4 -6.79Q1.82 -6.29 1.82 -5.53Q1.82 -5.17 1.96 -4.82Q2.11 -4.47 2.5 -4Q1.57 -3.62 1.16 -3.08Q0.75 -2.53 0.75 -1.92Q0.75 -1.07 1.45 -0.48Q2.14 0.12 3.57 0.12Q4.49 0.12 5.21 -0.1Q5.72 -0.25 6.24 -0.6Q6.49 -0.45 6.81 -0.24Q7.12 -0.04 7.41 0.12L8.48 -1.11Q8.27 -1.24 8.13 -1.32L7.38 -1.84Q7.59 -2.19 7.7 -2.45Q7.81 -2.71 7.93 -3.13ZM6.38 -3.48L6.38 -3.48ZM4.69 -5.19Q4.48 -4.95 4.1 -4.74Q3.56 -5.31 3.56 -5.62Q3.56 -5.85 3.75 -6.03Q3.94 -6.21 4.24 -6.21Q4.55 -6.21 4.73 -6.04Q4.9 -5.89 4.9 -5.66Q4.9 -5.44 4.69 -5.19ZM4.1 -4.74L4.1 -4.74ZM2.85 -2.5Q2.98 -2.71 3.39 -3Q4.38 -2.06 5.01 -1.57Q4.35 -1.16 3.82 -1.16Q3.33 -1.16 3.02 -1.44Q2.71 -1.71 2.71 -2.07Q2.71 -2.3 2.85 -2.5ZM3.39 -3L3.39 -3Z"/><path transform="translate(172.1 11)" d="M4.05 -7.16L0.76 -7.16L0.76 0L4.05 0Q4.64 0 5.37 -0.2Q5.9 -0.34 6.36 -0.76Q6.83 -1.19 7.09 -1.82Q7.35 -2.46 7.35 -3.6Q7.35 -4.34 7.17 -4.99Q7 -5.64 6.61 -6.14Q6.22 -6.63 5.62 -6.89Q5.02 -7.16 4.05 -7.16ZM2.97 -1.63L2.97 -5.54L3.53 -5.54Q4.38 -5.54 4.76 -5.12Q5.13 -4.7 5.13 -3.56Q5.13 -2.7 4.96 -2.31Q4.79 -1.93 4.5 -1.78Q4.21 -1.63 3.52 -1.63L2.97 -1.63Z"/><path transform="translate(179.9 11)" d="M2.37 -2.1L6.36 -2.1L6.36 -2.32Q6.36 -3.35 6.02 -3.99Q5.68 -4.63 5.04 -4.97Q4.39 -5.3 3.28 -5.3Q1.91 -5.3 1.13 -4.55Q0.35 -3.8 0.35 -2.58Q0.35 -1.73 0.74 -1.09Q1.13 -0.46 1.72 -0.17Q2.31 0.12 3.34 0.12Q4.53 0.12 5.16 -0.22Q5.8 -0.56 6.25 -1.34L4.29 -1.52Q4.1 -1.29 3.94 -1.2Q3.68 -1.05 3.38 -1.05Q2.92 -1.05 2.63 -1.39Q2.43 -1.62 2.37 -2.1ZM4.03 -3.88Q4.28 -3.63 4.34 -3.05L2.38 -3.05Q2.43 -3.52 2.61 -3.75Q2.89 -4.13 3.36 -4.13Q3.77 -4.13 4.03 -3.88Z"/><path transform="translate(186.3 11)" d="M2.08 -5.19L0.01 -5.19L2.17 0L3.94 0L6.14 -5.19L4.13 -5.19L3.09 -1.9L2.08 -5.19Z"/><path transform="translate(192.15 11)" d="M2.37 -2.1L6.36 -2.1L6.36 -2.32Q6.36 -3.35 6.02 -3.99Q5.68 -4.63 5.04 -4.97Q4.39 -5.3 3.28 -5.3Q1.91 -5.3 1.13 -4.55Q0.35 -3.8 0.35 -2.58Q0.35 -1.73 0.74 -1.09Q1.13 -0.46 1.72 -0.17Q2.31 0.12 3.34 0.12Q4.53 0.12 5.16 -0.22Q5.8 -0.56 6.25 -1.34L4.29 -1.52Q4.1 -1.29 3.94 -1.2Q3.68 -1.05 3.38 -1.05Q2.92 -1.05 2.63 -1.39Q2.43 -1.62 2.37 -2.1ZM4.03 -3.88Q4.28 -3.63 4.34 -3.05L2.38 -3.05Q2.43 -3.52 2.61 -3.75Q2.89 -4.13 3.36 -4.13Q3.77 -4.13 4.03 -3.88Z"/><path transform="translate(198.8 11)" d="M2.66 -7.16L0.67 -7.16L0.67 0L2.66 0L2.66 -7.16Z"/><path transform="translate(202.15 11)" d="M1.16 -4.53Q0.36 -3.76 0.36 -2.58Q0.36 -1.3 1.3 -0.52Q2.08 0.12 3.33 0.12Q4.73 0.12 5.52 -0.64Q6.31 -1.41 6.31 -2.61Q6.31 -3.67 5.67 -4.4Q4.88 -5.3 3.32 -5.3Q1.96 -5.3 1.16 -4.53ZM0.36 -2.58L0.36 -2.58ZM2.63 -1.56Q2.35 -1.89 2.35 -2.58Q2.35 -3.27 2.63 -3.6Q2.92 -3.94 3.35 -3.94Q3.76 -3.94 4.04 -3.6Q4.32 -3.28 4.32 -2.6Q4.32 -1.88 4.04 -1.55Q3.76 -1.23 3.33 -1.23Q2.91 -1.23 2.63 -1.56ZM2.35 -2.58L2.35 -2.58Z"/><path transform="translate(208.8 11)" d="M0.61 -5.19L0.61 1.97L2.62 1.97L2.62 -0.5Q2.92 -0.2 3.3 -0.04Q3.67 0.12 4.13 0.12Q5.08 0.12 5.7 -0.56Q6.32 -1.25 6.32 -2.54Q6.32 -3.71 5.75 -4.51Q5.18 -5.3 4.14 -5.3Q3.61 -5.3 3.18 -5.07Q2.86 -4.9 2.47 -4.42L2.47 -5.19L0.61 -5.19ZM2.86 -1.67Q2.6 -1.96 2.6 -2.58Q2.6 -3.25 2.86 -3.54Q3.11 -3.84 3.49 -3.84Q3.84 -3.84 4.09 -3.54Q4.33 -3.25 4.33 -2.62Q4.33 -1.94 4.1 -1.65Q3.86 -1.37 3.52 -1.37Q3.12 -1.37 2.86 -1.67ZM2.6 -2.58L2.6 -2.58Z"/><path transform="translate(215.45 11)" d="M2.37 -2.1L6.36 -2.1L6.36 -2.32Q6.36 -3.35 6.02 -3.99Q5.68 -4.63 5.04 -4.97Q4.39 -5.3 3.28 -5.3Q1.91 -5.3 1.13 -4.55Q0.35 -3.8 0.35 -2.58Q0.35 -1.73 0.74 -1.09Q1.13 -0.46 1.72 -0.17Q2.31 0.12 3.34 0.12Q4.53 0.12 5.16 -0.22Q5.8 -0.56 6.25 -1.34L4.29 -1.52Q4.1 -1.29 3.94 -1.2Q3.68 -1.05 3.38 -1.05Q2.92 -1.05 2.63 -1.39Q2.43 -1.62 2.37 -2.1ZM4.03 -3.88Q4.28 -3.63 4.34 -3.05L2.38 -3.05Q2.43 -3.52 2.61 -3.75Q2.89 -4.13 3.36 -4.13Q3.77 -4.13 4.03 -3.88Z"/><path transform="translate(222.1 11)" d="M6.06 0L6.06 -7.16L4.05 -7.16L4.05 -4.68Q3.76 -4.99 3.38 -5.15Q3 -5.3 2.54 -5.3Q1.59 -5.3 0.97 -4.62Q0.35 -3.94 0.35 -2.65Q0.35 -1.49 0.91 -0.69Q1.47 0.12 2.53 0.12Q3.06 0.12 3.49 -0.11Q3.81 -0.28 4.2 -0.77L4.2 0L6.06 0ZM3.81 -3.52Q4.07 -3.22 4.07 -2.61Q4.07 -1.93 3.81 -1.64Q3.56 -1.34 3.18 -1.34Q2.82 -1.34 2.58 -1.63Q2.34 -1.93 2.34 -2.56Q2.34 -3.24 2.57 -3.53Q2.81 -3.82 3.15 -3.82Q3.55 -3.82 3.81 -3.52ZM4.07 -2.61L4.07 -2.61Z"/><path transform="translate(232.1 11)" d="M4.88 -7.16L0.74 -7.16L0.74 0L4.56 0Q4.8 0 5.55 -0.1Q6.11 -0.17 6.39 -0.33Q6.84 -0.59 7.09 -1.04Q7.35 -1.48 7.35 -2.04Q7.35 -2.72 6.99 -3.17Q6.63 -3.62 5.85 -3.81Q6.36 -3.98 6.63 -4.29Q7.02 -4.74 7.02 -5.38Q7.02 -6.13 6.47 -6.65Q5.91 -7.16 4.88 -7.16ZM3.93 -4.35L2.97 -4.35L2.97 -5.71L3.95 -5.71Q4.45 -5.71 4.65 -5.53Q4.85 -5.36 4.85 -5.04Q4.85 -4.71 4.65 -4.53Q4.45 -4.35 3.93 -4.35ZM4.1 -1.54L2.97 -1.54L2.97 -2.99L4.09 -2.99Q4.67 -2.99 4.91 -2.79Q5.14 -2.6 5.14 -2.29Q5.14 -1.94 4.9 -1.74Q4.67 -1.54 4.1 -1.54Z"/><path transform="translate(239.9 11)" d="M2.12 -5.19L0.03 -5.19L2.21 0Q2.06 0.42 1.84 0.58Q1.62 0.74 1.27 0.74Q0.74 0.74 0.31 0.6L0.47 1.99Q1.37 2.1 1.8 2.1Q2.86 2.1 3.37 1.64Q3.74 1.3 4.09 0.36L6.15 -5.19L4.19 -5.19L3.2 -1.73L2.12 -5.19Z"/></g></g></g><g id="c55"><g><g fill="#2182b8" fill-rule="evenodd"><path transform="translate(45 13)" d="M4.34 -8.59L0.85 -8.59L0.85 0L3.02 0L3.02 -6.55L4.69 0L6.66 0L8.34 -6.55L8.34 0L10.51 0L10.51 -8.59L7.03 -8.59L5.69 -3.36L4.34 -8.59Z"/><path transform="translate(56.35 13)" d="M5.05 0L7.28 0L7.28 -6.22L4.89 -6.22L4.89 -3.23Q4.89 -2.38 4.62 -2.05Q4.35 -1.72 3.92 -1.72Q3.53 -1.72 3.31 -1.97Q3.09 -2.21 3.09 -2.8L3.09 -6.22L0.7 -6.22L0.7 -2.26Q0.7 -1.04 1.26 -0.45Q1.82 0.14 2.8 0.14Q3.54 0.14 4.05 -0.12Q4.55 -0.39 5.05 -1.01L5.05 0Z"/><path transform="translate(64.35 13)" d="M3.19 -8.59L0.8 -8.59L0.8 0L3.19 0L3.19 -8.59Z"/><path transform="translate(68.35 13)" d="M3.6 -6.22L3.6 -8.59L1.21 -7.37L1.21 -6.22L0.33 -6.22L0.33 -4.48L1.21 -4.48L1.21 -2.29Q1.21 -1.25 1.41 -0.78Q1.61 -0.32 2.03 -0.09Q2.46 0.14 3.35 0.14Q4.11 0.14 5 -0.05L4.82 -1.7Q4.35 -1.55 4.08 -1.55Q3.79 -1.55 3.67 -1.75Q3.6 -1.88 3.6 -2.27L3.6 -4.48L4.91 -4.48L4.91 -6.22L3.6 -6.22Z"/><path transform="translate(73.7 13)" d="M3.19 -8.59L0.81 -8.59L0.81 -6.97L3.19 -6.97L3.19 -8.59ZM3.19 -6.22L0.81 -6.22L0.81 0L3.19 0L3.19 -6.22Z"/><path transform="translate(77.7 13)" d="M0.73 -6.22L0.73 2.37L3.14 2.37L3.14 -0.6Q3.5 -0.23 3.96 -0.05Q4.41 0.14 4.96 0.14Q6.09 0.14 6.84 -0.67Q7.58 -1.49 7.58 -3.05Q7.58 -4.45 6.9 -5.41Q6.22 -6.36 4.97 -6.36Q4.34 -6.36 3.81 -6.09Q3.43 -5.88 2.96 -5.3L2.96 -6.22L0.73 -6.22ZM3.43 -2Q3.12 -2.36 3.12 -3.09Q3.12 -3.9 3.43 -4.25Q3.73 -4.61 4.19 -4.61Q4.61 -4.61 4.9 -4.25Q5.2 -3.9 5.2 -3.15Q5.2 -2.33 4.92 -1.98Q4.63 -1.64 4.22 -1.64Q3.74 -1.64 3.43 -2ZM3.12 -3.09L3.12 -3.09Z"/><path transform="translate(85.7 13)" d="M3.19 -8.59L0.8 -8.59L0.8 0L3.19 0L3.19 -8.59Z"/><path transform="translate(89.7 13)" d="M0.62 -4.45L2.89 -4.21Q3.04 -4.61 3.26 -4.76Q3.56 -4.95 4.14 -4.95Q4.6 -4.95 4.78 -4.77Q4.96 -4.59 4.96 -4.15Q4.52 -3.98 4.12 -3.87Q3.72 -3.76 2.38 -3.49Q1.26 -3.27 0.84 -2.81Q0.43 -2.36 0.43 -1.65Q0.43 -0.89 1.01 -0.38Q1.58 0.14 2.7 0.14Q3.53 0.14 4.17 -0.12Q4.63 -0.31 5.1 -0.76Q5.14 -0.49 5.18 -0.36Q5.22 -0.24 5.36 0L7.59 0Q7.41 -0.39 7.35 -0.63Q7.29 -0.88 7.29 -1.32L7.29 -4.07Q7.29 -4.51 7.12 -4.99Q6.94 -5.48 6.64 -5.74Q6.21 -6.12 5.55 -6.24Q4.9 -6.36 3.83 -6.36Q3.16 -6.36 2.59 -6.26Q2.02 -6.16 1.69 -5.98Q1.23 -5.73 0.99 -5.38Q0.74 -5.04 0.62 -4.45ZM2.89 -4.21L2.89 -4.21ZM3.94 -2.64Q4.47 -2.78 4.96 -2.95L4.96 -2.57Q4.96 -2.13 4.82 -1.85Q4.68 -1.57 4.34 -1.38Q3.99 -1.18 3.59 -1.18Q3.21 -1.18 3.02 -1.36Q2.82 -1.54 2.82 -1.82Q2.82 -2.07 3.02 -2.26Q3.21 -2.45 3.94 -2.64Z"/><path transform="translate(97.7 13)" d="M2.55 -6.22L0.04 -6.22L2.65 0Q2.47 0.5 2.2 0.69Q1.95 0.88 1.52 0.88Q0.89 0.88 0.38 0.72L0.56 2.38Q1.64 2.53 2.16 2.53Q3.43 2.53 4.05 1.96Q4.49 1.56 4.91 0.43L7.38 -6.22L5.03 -6.22L3.84 -2.08L2.55 -6.22Z"/><path transform="translate(104.85 13)" d="M2.85 -2.52L7.63 -2.52L7.63 -2.79Q7.63 -4.02 7.22 -4.79Q6.82 -5.55 6.05 -5.96Q5.27 -6.36 3.94 -6.36Q2.29 -6.36 1.36 -5.46Q0.42 -4.56 0.42 -3.1Q0.42 -2.07 0.89 -1.31Q1.35 -0.56 2.06 -0.21Q2.77 0.14 4.01 0.14Q5.43 0.14 6.19 -0.26Q6.96 -0.67 7.49 -1.61L5.14 -1.83Q4.92 -1.55 4.73 -1.44Q4.41 -1.26 4.06 -1.26Q3.5 -1.26 3.16 -1.66Q2.91 -1.95 2.85 -2.52ZM4.83 -4.65Q5.13 -4.35 5.2 -3.66L2.85 -3.66Q2.91 -4.22 3.13 -4.5Q3.47 -4.95 4.04 -4.95Q4.53 -4.95 4.83 -4.65Z"/><path transform="translate(112.85 13)" d="M2.98 -6.22L0.74 -6.22L0.74 0L3.14 0L3.14 -2.09Q3.14 -3.58 3.51 -4.12Q3.77 -4.51 4.24 -4.51Q4.48 -4.51 4.9 -4.34L5.64 -6.04Q5.02 -6.36 4.49 -6.36Q3.98 -6.36 3.64 -6.11Q3.3 -5.87 2.98 -5.2L2.98 -6.22Z"/></g><g fill="#ffffff" fill-rule="evenodd"><path transform="translate(122.2 13)" d="M5.28 -8.59L0.87 -8.59L0.87 0L3.53 0L3.53 -3.19L4.99 -3.19Q6.59 -3.19 7.38 -3.92Q8.16 -4.65 8.16 -5.95Q8.16 -7.22 7.44 -7.9Q6.72 -8.59 5.28 -8.59ZM4.18 -4.93L3.53 -4.93L3.53 -6.84L4.29 -6.84Q5.03 -6.84 5.3 -6.56Q5.57 -6.28 5.57 -5.88Q5.57 -5.46 5.26 -5.19Q4.95 -4.93 4.18 -4.93Z"/><path transform="translate(130.55 13)" d="M1.39 -5.44Q0.43 -4.52 0.43 -3.09Q0.43 -1.56 1.56 -0.62Q2.49 0.14 3.99 0.14Q5.67 0.14 6.63 -0.77Q7.58 -1.69 7.58 -3.13Q7.58 -4.41 6.81 -5.28Q5.85 -6.36 3.98 -6.36Q2.35 -6.36 1.39 -5.44ZM0.43 -3.09L0.43 -3.09ZM3.16 -1.87Q2.82 -2.27 2.82 -3.1Q2.82 -3.92 3.16 -4.32Q3.5 -4.72 4.02 -4.72Q4.51 -4.72 4.85 -4.32Q5.18 -3.93 5.18 -3.12Q5.18 -2.26 4.85 -1.86Q4.52 -1.47 4 -1.47Q3.49 -1.47 3.16 -1.87ZM2.82 -3.1L2.82 -3.1Z"/><path transform="translate(138.35 13)" d="M2.33 -6.22L0.02 -6.22L2.33 0L4.46 0L5.68 -3.74L6.94 0L9.06 0L11.36 -6.22L9.06 -6.22L8.06 -2.3L6.74 -6.22L4.59 -6.22L3.33 -2.3L2.33 -6.22Z"/><path transform="translate(149.55 13)" d="M2.85 -2.52L7.63 -2.52L7.63 -2.79Q7.63 -4.02 7.22 -4.79Q6.82 -5.55 6.05 -5.96Q5.27 -6.36 3.94 -6.36Q2.29 -6.36 1.36 -5.46Q0.42 -4.56 0.42 -3.1Q0.42 -2.07 0.89 -1.31Q1.35 -0.56 2.06 -0.21Q2.77 0.14 4.01 0.14Q5.43 0.14 6.19 -0.26Q6.96 -0.67 7.49 -1.61L5.14 -1.83Q4.92 -1.55 4.73 -1.44Q4.41 -1.26 4.06 -1.26Q3.5 -1.26 3.16 -1.66Q2.91 -1.95 2.85 -2.52ZM4.83 -4.65Q5.13 -4.35 5.2 -3.66L2.85 -3.66Q2.91 -4.22 3.13 -4.5Q3.47 -4.95 4.04 -4.95Q4.53 -4.95 4.83 -4.65Z"/><path transform="translate(157.55 13)" d="M2.98 -6.22L0.74 -6.22L0.74 0L3.14 0L3.14 -2.09Q3.14 -3.58 3.51 -4.12Q3.77 -4.51 4.24 -4.51Q4.48 -4.51 4.9 -4.34L5.64 -6.04Q5.02 -6.36 4.49 -6.36Q3.98 -6.36 3.64 -6.11Q3.3 -5.87 2.98 -5.2L2.98 -6.22Z"/><path transform="translate(163.1 13)" d="M2.85 -2.52L7.63 -2.52L7.63 -2.79Q7.63 -4.02 7.22 -4.79Q6.82 -5.55 6.05 -5.96Q5.27 -6.36 3.94 -6.36Q2.29 -6.36 1.36 -5.46Q0.42 -4.56 0.42 -3.1Q0.42 -2.07 0.89 -1.31Q1.35 -0.56 2.06 -0.21Q2.77 0.14 4.01 0.14Q5.43 0.14 6.19 -0.26Q6.96 -0.67 7.49 -1.61L5.14 -1.83Q4.92 -1.55 4.73 -1.44Q4.41 -1.26 4.06 -1.26Q3.5 -1.26 3.16 -1.66Q2.91 -1.95 2.85 -2.52ZM4.83 -4.65Q5.13 -4.35 5.2 -3.66L2.85 -3.66Q2.91 -4.22 3.13 -4.5Q3.47 -4.95 4.04 -4.95Q4.53 -4.95 4.83 -4.65Z"/><path transform="translate(171.1 13)" d="M7.27 0L7.27 -8.59L4.86 -8.59L4.86 -5.61Q4.51 -5.99 4.06 -6.18Q3.6 -6.36 3.05 -6.36Q1.9 -6.36 1.17 -5.54Q0.42 -4.72 0.42 -3.18Q0.42 -1.79 1.1 -0.83Q1.76 0.14 3.04 0.14Q3.67 0.14 4.18 -0.13Q4.57 -0.33 5.04 -0.92L5.04 0L7.27 0ZM4.57 -4.22Q4.88 -3.86 4.88 -3.13Q4.88 -2.32 4.58 -1.96Q4.27 -1.61 3.81 -1.61Q3.39 -1.61 3.1 -1.96Q2.81 -2.31 2.81 -3.08Q2.81 -3.89 3.09 -4.24Q3.37 -4.58 3.79 -4.58Q4.26 -4.58 4.57 -4.22ZM4.88 -3.13L4.88 -3.13Z"/><path transform="translate(183.1 13)" d="M5.85 -8.59L0.88 -8.59L0.88 0L5.47 0Q5.76 0 6.66 -0.12Q7.33 -0.21 7.66 -0.4Q8.2 -0.71 8.51 -1.24Q8.82 -1.78 8.82 -2.44Q8.82 -3.26 8.39 -3.8Q7.95 -4.35 7.03 -4.57Q7.63 -4.78 7.95 -5.14Q8.43 -5.69 8.43 -6.45Q8.43 -7.36 7.76 -7.97Q7.1 -8.59 5.85 -8.59ZM4.72 -5.22L3.56 -5.22L3.56 -6.85L4.73 -6.85Q5.34 -6.85 5.58 -6.64Q5.82 -6.43 5.82 -6.05Q5.82 -5.65 5.58 -5.43Q5.34 -5.22 4.72 -5.22ZM4.92 -1.85L3.56 -1.85L3.56 -3.59L4.91 -3.59Q5.61 -3.59 5.89 -3.35Q6.16 -3.12 6.16 -2.74Q6.16 -2.33 5.88 -2.09Q5.6 -1.85 4.92 -1.85Z"/><path transform="translate(192.45 13)" d="M2.55 -6.22L0.04 -6.22L2.65 0Q2.47 0.5 2.2 0.69Q1.95 0.88 1.52 0.88Q0.89 0.88 0.38 0.72L0.56 2.38Q1.64 2.53 2.16 2.53Q3.43 2.53 4.05 1.96Q4.49 1.56 4.91 0.43L7.38 -6.22L5.03 -6.22L3.84 -2.08L2.55 -6.22Z"/></g><g fill="#2182b8" fill-rule="evenodd"><path transform="translate(203.8 13)" d="M4.34 -8.59L0.85 -8.59L0.85 0L3.02 0L3.02 -6.55L4.69 0L6.66 0L8.34 -6.55L8.34 0L10.51 0L10.51 -8.59L7.03 -8.59L5.69 -3.36L4.34 -8.59Z"/><path transform="translate(215.15 13)" d="M4.34 -8.59L0.85 -8.59L0.85 0L3.02 0L3.02 -6.55L4.69 0L6.66 0L8.34 -6.55L8.34 0L10.51 0L10.51 -8.59L7.03 -8.59L5.69 -3.36L4.34 -8.59Z"/><path transform="translate(226.5 13)" d="M1.72 -7.56Q0.54 -6.39 0.54 -4.29Q0.54 -2.78 1.14 -1.78Q1.73 -0.78 2.68 -0.32Q3.63 0.15 5.09 0.15Q6.52 0.15 7.48 -0.39Q8.43 -0.93 8.94 -1.89Q9.45 -2.85 9.45 -4.36Q9.45 -6.43 8.29 -7.58Q7.12 -8.74 4.98 -8.74Q2.89 -8.74 1.72 -7.56ZM0.54 -4.29L0.54 -4.29ZM3.69 -2.41Q3.2 -2.98 3.2 -4.28Q3.2 -5.59 3.69 -6.16Q4.17 -6.73 4.97 -6.73Q5.81 -6.73 6.3 -6.16Q6.79 -5.61 6.79 -4.39Q6.79 -2.95 6.32 -2.4Q5.85 -1.84 5 -1.84Q4.17 -1.84 3.69 -2.41ZM3.2 -4.28L3.2 -4.28Z"/><path transform="translate(236.5 13)" d="M7.63 -2.18L5.36 -2.44Q5.2 -1.94 4.89 -1.7Q4.56 -1.46 4.1 -1.46Q3.53 -1.46 3.17 -1.86Q2.81 -2.26 2.81 -3.02Q2.81 -3.88 3.18 -4.31Q3.54 -4.73 4.13 -4.73Q4.6 -4.73 4.88 -4.52Q5.16 -4.32 5.26 -3.93L7.51 -4.22Q7.18 -5.27 6.39 -5.82Q5.58 -6.36 4.06 -6.36Q2.97 -6.36 2.27 -6.08Q1.83 -5.89 1.42 -5.53Q1 -5.15 0.76 -4.68Q0.43 -4.04 0.43 -3.08Q0.43 -2.17 0.7 -1.61Q0.97 -1.05 1.45 -0.64Q1.92 -0.23 2.58 -0.04Q3.24 0.14 4.23 0.14Q5.26 0.14 5.92 -0.15Q6.59 -0.43 7.01 -0.95Q7.44 -1.47 7.63 -2.18ZM5.36 -2.44L5.36 -2.44Z"/><path transform="translate(244.3 13)" d="M3.11 -8.59L0.72 -8.59L0.72 0L3.11 0L3.11 -2.99Q3.11 -3.84 3.38 -4.17Q3.64 -4.49 4.08 -4.49Q4.47 -4.49 4.69 -4.25Q4.9 -4.01 4.9 -3.42L4.9 0L7.3 0L7.3 -3.96Q7.3 -5.18 6.74 -5.77Q6.18 -6.36 5.21 -6.36Q4.55 -6.36 4.07 -6.15Q3.59 -5.93 3.11 -5.43L3.11 -8.59Z"/><path transform="translate(252.3 13)" d="M0.62 -4.45L2.89 -4.21Q3.04 -4.61 3.26 -4.76Q3.56 -4.95 4.14 -4.95Q4.6 -4.95 4.78 -4.77Q4.96 -4.59 4.96 -4.15Q4.52 -3.98 4.12 -3.87Q3.72 -3.76 2.38 -3.49Q1.26 -3.27 0.84 -2.81Q0.43 -2.36 0.43 -1.65Q0.43 -0.89 1.01 -0.38Q1.58 0.14 2.7 0.14Q3.53 0.14 4.17 -0.12Q4.63 -0.31 5.1 -0.76Q5.14 -0.49 5.18 -0.36Q5.22 -0.24 5.36 0L7.59 0Q7.41 -0.39 7.35 -0.63Q7.29 -0.88 7.29 -1.32L7.29 -4.07Q7.29 -4.51 7.12 -4.99Q6.94 -5.48 6.64 -5.74Q6.21 -6.12 5.55 -6.24Q4.9 -6.36 3.83 -6.36Q3.16 -6.36 2.59 -6.26Q2.02 -6.16 1.69 -5.98Q1.23 -5.73 0.99 -5.38Q0.74 -5.04 0.62 -4.45ZM2.89 -4.21L2.89 -4.21ZM3.94 -2.64Q4.47 -2.78 4.96 -2.95L4.96 -2.57Q4.96 -2.13 4.82 -1.85Q4.68 -1.57 4.34 -1.38Q3.99 -1.18 3.59 -1.18Q3.21 -1.18 3.02 -1.36Q2.82 -1.54 2.82 -1.82Q2.82 -2.07 3.02 -2.26Q3.21 -2.45 3.94 -2.64Z"/><path transform="translate(264.3 13)" d="M2.94 -3L0.42 -2.84Q0.53 -1.54 1.37 -0.7Q2.21 0.15 4.41 0.15Q5.65 0.15 6.47 -0.21Q7.29 -0.57 7.75 -1.27Q8.21 -1.97 8.21 -2.79Q8.21 -3.5 7.87 -4.07Q7.52 -4.63 6.77 -5.02Q6.02 -5.4 4.28 -5.78Q3.57 -5.92 3.39 -6.09Q3.19 -6.26 3.19 -6.46Q3.19 -6.74 3.43 -6.94Q3.66 -7.14 4.12 -7.14Q4.69 -7.14 5.01 -6.87Q5.33 -6.61 5.43 -6.03L7.93 -6.18Q7.76 -7.51 6.9 -8.12Q6.04 -8.74 4.39 -8.74Q3.05 -8.74 2.28 -8.4Q1.51 -8.06 1.12 -7.47Q0.74 -6.88 0.74 -6.22Q0.74 -5.21 1.49 -4.56Q2.23 -3.91 3.98 -3.52Q5.04 -3.29 5.34 -3.02Q5.63 -2.76 5.63 -2.43Q5.63 -2.07 5.33 -1.8Q5.02 -1.54 4.45 -1.54Q3.69 -1.54 3.28 -2.06Q3.02 -2.38 2.94 -3ZM0.42 -2.84L0.42 -2.84Z"/><path transform="translate(272.95 13)" d="M2.85 -2.52L7.63 -2.52L7.63 -2.79Q7.63 -4.02 7.22 -4.79Q6.82 -5.55 6.05 -5.96Q5.27 -6.36 3.94 -6.36Q2.29 -6.36 1.36 -5.46Q0.42 -4.56 0.42 -3.1Q0.42 -2.07 0.89 -1.31Q1.35 -0.56 2.06 -0.21Q2.77 0.14 4.01 0.14Q5.43 0.14 6.19 -0.26Q6.96 -0.67 7.49 -1.61L5.14 -1.83Q4.92 -1.55 4.73 -1.44Q4.41 -1.26 4.06 -1.26Q3.5 -1.26 3.16 -1.66Q2.91 -1.95 2.85 -2.52ZM4.83 -4.65Q5.13 -4.35 5.2 -3.66L2.85 -3.66Q2.91 -4.22 3.13 -4.5Q3.47 -4.95 4.04 -4.95Q4.53 -4.95 4.83 -4.65Z"/><path transform="translate(280.95 13)" d="M2.98 -6.22L0.74 -6.22L0.74 0L3.14 0L3.14 -2.09Q3.14 -3.58 3.51 -4.12Q3.77 -4.51 4.24 -4.51Q4.48 -4.51 4.9 -4.34L5.64 -6.04Q5.02 -6.36 4.49 -6.36Q3.98 -6.36 3.64 -6.11Q3.3 -5.87 2.98 -5.2L2.98 -6.22Z"/><path transform="translate(287 13)" d="M2.5 -6.22L0.02 -6.22L2.61 0L4.72 0L7.37 -6.22L4.96 -6.22L3.71 -2.28L2.5 -6.22Z"/><path transform="translate(294.05 13)" d="M2.85 -2.52L7.63 -2.52L7.63 -2.79Q7.63 -4.02 7.22 -4.79Q6.82 -5.55 6.05 -5.96Q5.27 -6.36 3.94 -6.36Q2.29 -6.36 1.36 -5.46Q0.42 -4.56 0.42 -3.1Q0.42 -2.07 0.89 -1.31Q1.35 -0.56 2.06 -0.21Q2.77 0.14 4.01 0.14Q5.43 0.14 6.19 -0.26Q6.96 -0.67 7.49 -1.61L5.14 -1.83Q4.92 -1.55 4.73 -1.44Q4.41 -1.26 4.06 -1.26Q3.5 -1.26 3.16 -1.66Q2.91 -1.95 2.85 -2.52ZM4.83 -4.65Q5.13 -4.35 5.2 -3.66L2.85 -3.66Q2.91 -4.22 3.13 -4.5Q3.47 -4.95 4.04 -4.95Q4.53 -4.95 4.83 -4.65Z"/><path transform="translate(302.05 13)" d="M2.98 -6.22L0.74 -6.22L0.74 0L3.14 0L3.14 -2.09Q3.14 -3.58 3.51 -4.12Q3.77 -4.51 4.24 -4.51Q4.48 -4.51 4.9 -4.34L5.64 -6.04Q5.02 -6.36 4.49 -6.36Q3.98 -6.36 3.64 -6.11Q3.3 -5.87 2.98 -5.2L2.98 -6.22Z"/></g></g></g><g id="c61"><g transform="translate(-51.5 0)"><g fill="#ffffff" fill-rule="evenodd"><path transform="translate(0 23)" d="M10.75 -3.77L11.99 0L14.7 0L7.96 -18.13L7.31 -18.13L0.05 0L2.78 0L4.1 -3.77L10.75 -3.77ZM4.75 -5.57L7.52 -13.44L10.06 -5.57L4.75 -5.57Z"/><path transform="translate(22.3 23)" d="M1.92 -3.06L1.03 -0.82Q2.71 0.31 5.09 0.31Q7.8 0.31 9.42 -1.1Q11.04 -2.5 11.04 -4.52Q11.04 -6.37 10.3 -7.57Q9.56 -8.78 7.73 -9.64L6.26 -10.34Q4.85 -11.02 4.39 -11.4Q3.93 -11.78 3.67 -12.34Q3.42 -12.9 3.42 -13.59Q3.42 -14.7 4.14 -15.41Q4.85 -16.11 6.09 -16.11Q6.95 -16.11 7.95 -15.78Q8.95 -15.45 9.44 -15.1L10.16 -17.22Q9 -18.19 6.03 -18.19Q3.81 -18.19 2.39 -16.87Q0.98 -15.55 0.98 -13.55Q0.98 -11.9 1.71 -10.73Q2.43 -9.56 4.26 -8.7L5.7 -8.03Q7.64 -7.12 8.13 -6.34Q8.61 -5.57 8.61 -4.66Q8.61 -3.45 7.74 -2.67Q6.87 -1.89 5.44 -1.89Q4.64 -1.89 3.63 -2.22Q2.6 -2.56 1.92 -3.06ZM1.03 -0.82L1.03 -0.82Z"/><path transform="translate(34.3 23)" d="M4.27 -10.72L4.27 -15.69L12.51 -15.69L12.51 -17.88L1.83 -17.88L1.83 0L12.38 0L12.38 -2.2L4.27 -2.2L4.27 -8.64L10.18 -8.64L10.18 -10.72L4.27 -10.72Z"/><path transform="translate(47.7 23)" d="M10.75 -3.77L11.99 0L14.7 0L7.96 -18.13L7.31 -18.13L0.05 0L2.78 0L4.1 -3.77L10.75 -3.77ZM4.75 -5.57L7.52 -13.44L10.06 -5.57L4.75 -5.57Z"/><path transform="translate(62.45 23)" d="M4.15 -12.83L13.39 0.24L14.12 0.24L14.12 -17.88L11.8 -17.88L11.8 -5.52L2.81 -17.88L1.83 -17.88L1.83 0L4.15 0L4.15 -12.83Z"/><path transform="translate(85.95 23)" d="M12.43 -15.14L13.24 -17.22Q11.6 -18.19 8.68 -18.19Q5.27 -18.19 3.12 -15.54Q0.98 -12.89 0.98 -8.89Q0.98 -4.75 2.99 -2.22Q5 0.31 8.51 0.31Q11.85 0.31 13.98 -1.81L12.63 -3.67Q11.28 -1.89 8.76 -1.89Q6.46 -1.89 5 -3.78Q3.54 -5.69 3.54 -8.74Q3.54 -11.94 4.97 -13.96Q6.38 -15.99 8.74 -15.99Q11.25 -15.99 12.43 -15.14ZM13.24 -17.22L13.24 -17.22Z"/><path transform="translate(100.9 23)" d="M2.93 -15.59Q0.98 -12.98 0.98 -9.09Q0.98 -4.97 2.89 -2.33Q4.8 0.31 8.18 0.31Q11.89 0.31 13.88 -2.19Q15.87 -4.69 15.87 -9.09Q15.87 -13.39 13.89 -15.8Q11.9 -18.2 8.18 -18.2Q4.87 -18.2 2.93 -15.59ZM0.98 -9.09L0.98 -9.09ZM4.76 -3.96Q3.54 -6.02 3.54 -9.09Q3.54 -12.29 4.72 -14.15Q5.91 -16 8.18 -16Q13.31 -16 13.31 -9.09Q13.31 -5.68 12 -3.78Q10.68 -1.89 8.18 -1.89Q5.97 -1.89 4.76 -3.96ZM3.54 -9.09L3.54 -9.09Z"/><path transform="translate(117.75 23)" d="M2.93 -15.59Q0.98 -12.98 0.98 -9.09Q0.98 -4.97 2.89 -2.33Q4.8 0.31 8.18 0.31Q11.89 0.31 13.88 -2.19Q15.87 -4.69 15.87 -9.09Q15.87 -13.39 13.89 -15.8Q11.9 -18.2 8.18 -18.2Q4.87 -18.2 2.93 -15.59ZM0.98 -9.09L0.98 -9.09ZM4.76 -3.96Q3.54 -6.02 3.54 -9.09Q3.54 -12.29 4.72 -14.15Q5.91 -16 8.18 -16Q13.31 -16 13.31 -9.09Q13.31 -5.68 12 -3.78Q10.68 -1.89 8.18 -1.89Q5.97 -1.89 4.76 -3.96ZM3.54 -9.09L3.54 -9.09Z"/><path transform="translate(134.6 23)" d="M4.27 0L4.27 -6.88Q5.66 -6.76 6.08 -6.76Q12.96 -6.76 12.96 -12.79Q12.96 -18.01 5.18 -18.01Q4.6 -18.01 1.83 -17.88L1.83 0L4.27 0ZM4.27 -6.88L4.27 -6.88ZM4.27 -9.08L4.27 -15.69Q5.11 -15.81 5.6 -15.81Q10.45 -15.81 10.45 -12.54Q10.45 -8.96 5.91 -8.96Q5.82 -8.96 4.27 -9.08ZM4.27 -15.69L4.27 -15.69Z"/><path transform="translate(148.55 23)" d="M4.27 -10.72L4.27 -15.69L12.51 -15.69L12.51 -17.88L1.83 -17.88L1.83 0L12.38 0L12.38 -2.2L4.27 -2.2L4.27 -8.64L10.18 -8.64L10.18 -10.72L4.27 -10.72Z"/><path transform="translate(161.95 23)" d="M6.98 -7.68L11.76 0L14.55 0L9.36 -8.23Q10.79 -8.56 11.83 -9.9Q12.87 -11.25 12.87 -12.94Q12.87 -18.07 6.42 -18.07Q5.62 -18.07 3.86 -17.97Q2.09 -17.88 1.95 -17.88L1.95 0L4.39 0L4.39 -7.8Q6.16 -7.68 6.98 -7.68ZM4.39 -9.88L4.39 -15.69Q5.47 -15.81 5.83 -15.81Q8.15 -15.81 9.23 -15.15Q10.3 -14.49 10.3 -12.99Q10.3 -11.17 9.3 -10.46Q8.3 -9.75 6.1 -9.75Q5.27 -9.75 4.39 -9.88ZM4.39 -15.69L4.39 -15.69Z"/><path transform="translate(184.05 23)" d="M13.21 -14.62L14.22 -16.64Q12.46 -18.19 9.67 -18.19Q5.68 -18.19 3.33 -15.6Q0.98 -13.02 0.98 -8.87Q0.98 -4.71 3.12 -2.2Q5.26 0.31 8.96 0.31Q10.61 0.31 12.35 -0.2Q14.1 -0.71 15.08 -1.54L15.08 -9.33L10.16 -9.33L10.16 -7.25L12.63 -7.25L12.63 -3.06Q11.43 -1.89 9.47 -1.89Q6.73 -1.89 5.14 -3.78Q3.54 -5.68 3.54 -8.78Q3.54 -12.04 5.16 -14.01Q6.79 -15.99 9.59 -15.99Q11.36 -15.99 13.21 -14.62ZM14.22 -16.64L14.22 -16.64Z"/><path transform="translate(200.95 23)" d="M10.75 -3.77L11.99 0L14.7 0L7.96 -18.13L7.31 -18.13L0.05 0L2.78 0L4.1 -3.77L10.75 -3.77ZM4.75 -5.57L7.52 -13.44L10.06 -5.57L4.75 -5.57Z"/><path transform="translate(215.7 23)" d="M13.17 -11.49L15.3 0L17.61 0L13.99 -17.88L12.89 -17.88L8.96 -4.83L4.7 -17.88L3.59 -17.88L0.24 0L2.56 0L4.64 -11.49L8.65 0.24L9.27 0.24L13.17 -11.49Z"/><path transform="translate(233.45 23)" d="M4.27 -10.72L4.27 -15.69L12.51 -15.69L12.51 -17.88L1.83 -17.88L1.83 0L12.38 0L12.38 -2.2L4.27 -2.2L4.27 -8.64L10.18 -8.64L10.18 -10.72L4.27 -10.72Z"/></g><g fill="#ffffff" fill-rule="evenodd"><path transform="translate(1 42)" d="M10.5 0.2L10.99 0.2L14.74 -10.49L12.91 -10.49L10.51 -3.62L7.64 -10.49L7.15 -10.49L4.37 -3.62L2.13 -10.49L0.15 -10.49L3.89 0.2L4.38 0.2L7.43 -6.92L10.5 0.2Z"/><path transform="translate(14.9 42)" d="M10.5 0.2L10.99 0.2L14.74 -10.49L12.91 -10.49L10.51 -3.62L7.64 -10.49L7.15 -10.49L4.37 -3.62L2.13 -10.49L0.15 -10.49L3.89 0.2L4.38 0.2L7.43 -6.92L10.5 0.2Z"/><path transform="translate(28.8 42)" d="M10.5 0.2L10.99 0.2L14.74 -10.49L12.91 -10.49L10.51 -3.62L7.64 -10.49L7.15 -10.49L4.37 -3.62L2.13 -10.49L0.15 -10.49L3.89 0.2L4.38 0.2L7.43 -6.92L10.5 0.2Z"/><path transform="translate(42.7 42)" d="M4.49 -2.31Q4.06 -2.74 3.46 -2.74Q2.85 -2.74 2.42 -2.31Q1.99 -1.88 1.99 -1.28Q1.99 -0.67 2.42 -0.23Q2.85 0.2 3.46 0.2Q4.06 0.2 4.49 -0.23Q4.92 -0.67 4.92 -1.28Q4.92 -1.88 4.49 -2.31ZM3.46 -2.74L3.46 -2.74Z"/><path transform="translate(49.05 42)" d="M1.94 1.38L0.94 2.86Q1.62 3.38 2.74 3.74Q3.87 4.1 4.88 4.1Q6.87 4.1 8.16 3.21Q9.45 2.32 9.45 0.88Q9.45 -0.43 8.59 -1.16Q7.72 -1.9 6.18 -1.9Q5.75 -1.9 4.86 -1.75Q3.97 -1.6 3.55 -1.6Q2.6 -1.6 2.6 -2Q2.6 -2.29 3.06 -2.47Q3.52 -2.66 3.79 -2.69L5.32 -2.84Q6.92 -3 7.91 -4.07Q8.9 -5.15 8.9 -6.73Q8.9 -8.22 8.18 -9.15L9.3 -9.99L8.09 -11.13L7.16 -10.02Q6.29 -10.65 4.75 -10.65Q3.07 -10.65 1.92 -9.56Q0.78 -8.47 0.78 -6.83Q0.78 -4.27 2.99 -3.23Q2.22 -3.05 1.7 -2.63Q1.17 -2.21 1.17 -1.69Q1.17 -0.01 3.4 -0.01Q3.86 -0.01 4.68 -0.17Q5.5 -0.32 5.81 -0.32Q7.65 -0.32 7.65 0.95Q7.65 1.59 6.92 2.03Q6.19 2.46 4.93 2.46Q3.56 2.46 1.94 1.38ZM0.94 2.86L0.94 2.86ZM3.3 -8.48Q3.91 -9.16 4.87 -9.16Q5.77 -9.16 6.38 -8.48Q6.97 -7.79 6.97 -6.82Q6.97 -5.68 6.42 -4.98Q5.86 -4.29 4.87 -4.29Q3.87 -4.29 3.28 -5Q2.69 -5.72 2.69 -6.82Q2.69 -7.79 3.3 -8.48ZM4.87 -9.16L4.87 -9.16Z"/><path transform="translate(58.1 42)" d="M3.82 0.2Q6.11 0.2 7.23 -1.2Q7.47 -0.46 8.04 -0.14Q8.59 0.19 9.73 0.19L9.73 -0.74Q8.91 -1.2 8.91 -2.58L8.91 -6.33Q8.91 -8.58 7.88 -9.62Q6.85 -10.65 4.57 -10.65Q3.72 -10.65 2.79 -10.34Q1.86 -10.04 1.33 -9.61L2.11 -8.06Q3.05 -8.99 4.79 -8.99Q7.05 -8.99 7.05 -6.46Q6.31 -6.71 5.72 -6.71Q3.56 -6.71 2.18 -5.61Q0.78 -4.51 0.78 -2.92Q0.78 -1.59 1.69 -0.69Q2.59 0.2 3.82 0.2ZM7.23 -1.2L7.23 -1.2ZM5.82 -5.33Q6.17 -5.33 7.05 -5.14L7.05 -2.61Q5.97 -1.27 4.56 -1.27Q2.64 -1.27 2.64 -2.9Q2.64 -3.89 3.53 -4.61Q4.41 -5.33 5.82 -5.33Z"/><path transform="translate(67.6 42)" d="M13.43 -6.62L13.43 0L15.28 0L15.28 -6.99Q15.28 -8.73 14.39 -9.69Q13.51 -10.65 11.88 -10.65Q10.99 -10.65 10.14 -10.25Q9.29 -9.85 8.97 -9.26Q8.08 -10.65 5.83 -10.65Q4.22 -10.65 3.14 -9.25L2.53 -10.46L1.32 -10.46L1.32 0L3.17 0L3.17 -7.71Q3.44 -8.23 4.07 -8.66Q4.7 -9.09 5.25 -9.09Q6.21 -9.09 6.8 -8.64Q7.37 -8.2 7.37 -7.43L7.37 0L9.23 0L9.23 -7.73Q9.44 -8.26 10.03 -8.67Q10.62 -9.09 11.29 -9.09Q13.43 -9.09 13.43 -6.62Z"/><path transform="translate(83.2 42)" d="M2.59 -5.05L10.13 -5.05Q10.27 -5.57 10.27 -6.18Q10.27 -8.18 9.04 -9.39Q7.77 -10.65 5.54 -10.65Q3.61 -10.65 2.21 -9.26Q0.63 -7.7 0.63 -5.11Q0.63 -2.62 2.17 -1.14Q3.54 0.2 5.52 0.2Q6.88 0.2 8 -0.21Q8.89 -0.53 9.32 -0.96L8.54 -2.29Q7.47 -1.37 5.88 -1.37Q4.48 -1.37 3.59 -2.23Q2.59 -3.21 2.59 -5.05ZM10.13 -5.05L10.13 -5.05ZM3.54 -8.29Q4.38 -9.09 5.62 -9.09Q6.95 -9.09 7.72 -8.27Q8.43 -7.52 8.43 -6.4L2.64 -6.4Q2.74 -7.53 3.54 -8.29ZM5.62 -9.09L5.62 -9.09Z"/><path transform="translate(93.1 42)" d="M1.29 -2.38L0.63 -0.62Q2.09 0.2 3.74 0.2Q5.49 0.2 6.47 -0.6Q7.46 -1.4 7.46 -2.8Q7.46 -3.88 6.9 -4.59Q6.35 -5.3 5.13 -5.86L3.8 -6.46Q2.66 -6.98 2.66 -7.99Q2.66 -8.47 3.12 -8.78Q3.56 -9.09 4.23 -9.09Q5.34 -9.09 6.45 -8.21L6.97 -9.93Q5.23 -10.65 4.09 -10.65Q2.58 -10.65 1.64 -9.93Q0.7 -9.21 0.7 -7.92Q0.7 -7.42 0.87 -6.98Q1.03 -6.55 1.36 -6.16Q1.68 -5.78 2.13 -5.48Q2.57 -5.18 3.85 -4.59Q5.51 -3.85 5.51 -2.81Q5.51 -1.37 3.79 -1.37Q2.84 -1.37 1.29 -2.38ZM0.63 -0.62L0.63 -0.62Z"/><path transform="translate(100.2 42)" d="M4.49 -2.31Q4.06 -2.74 3.46 -2.74Q2.85 -2.74 2.42 -2.31Q1.99 -1.88 1.99 -1.28Q1.99 -0.67 2.42 -0.23Q2.85 0.2 3.46 0.2Q4.06 0.2 4.49 -0.23Q4.92 -0.67 4.92 -1.28Q4.92 -1.88 4.49 -2.31ZM3.46 -2.74L3.46 -2.74Z"/><path transform="translate(106.55 42)" d="M1.29 -2.38L0.63 -0.62Q2.09 0.2 3.74 0.2Q5.49 0.2 6.47 -0.6Q7.46 -1.4 7.46 -2.8Q7.46 -3.88 6.9 -4.59Q6.35 -5.3 5.13 -5.86L3.8 -6.46Q2.66 -6.98 2.66 -7.99Q2.66 -8.47 3.12 -8.78Q3.56 -9.09 4.23 -9.09Q5.34 -9.09 6.45 -8.21L6.97 -9.93Q5.23 -10.65 4.09 -10.65Q2.58 -10.65 1.64 -9.93Q0.7 -9.21 0.7 -7.92Q0.7 -7.42 0.87 -6.98Q1.03 -6.55 1.36 -6.16Q1.68 -5.78 2.13 -5.48Q2.57 -5.18 3.85 -4.59Q5.51 -3.85 5.51 -2.81Q5.51 -1.37 3.79 -1.37Q2.84 -1.37 1.29 -2.38ZM0.63 -0.62L0.63 -0.62Z"/><path transform="translate(113.65 42)" d="M2.59 -5.05L10.13 -5.05Q10.27 -5.57 10.27 -6.18Q10.27 -8.18 9.04 -9.39Q7.77 -10.65 5.54 -10.65Q3.61 -10.65 2.21 -9.26Q0.63 -7.7 0.63 -5.11Q0.63 -2.62 2.17 -1.14Q3.54 0.2 5.52 0.2Q6.88 0.2 8 -0.21Q8.89 -0.53 9.32 -0.96L8.54 -2.29Q7.47 -1.37 5.88 -1.37Q4.48 -1.37 3.59 -2.23Q2.59 -3.21 2.59 -5.05ZM10.13 -5.05L10.13 -5.05ZM3.54 -8.29Q4.38 -9.09 5.62 -9.09Q6.95 -9.09 7.72 -8.27Q8.43 -7.52 8.43 -6.4L2.64 -6.4Q2.74 -7.53 3.54 -8.29ZM5.62 -9.09L5.62 -9.09Z"/><path transform="translate(123.55 42)" d="M3.82 0.2Q6.11 0.2 7.23 -1.2Q7.47 -0.46 8.04 -0.14Q8.59 0.19 9.73 0.19L9.73 -0.74Q8.91 -1.2 8.91 -2.58L8.91 -6.33Q8.91 -8.58 7.88 -9.62Q6.85 -10.65 4.57 -10.65Q3.72 -10.65 2.79 -10.34Q1.86 -10.04 1.33 -9.61L2.11 -8.06Q3.05 -8.99 4.79 -8.99Q7.05 -8.99 7.05 -6.46Q6.31 -6.71 5.72 -6.71Q3.56 -6.71 2.18 -5.61Q0.78 -4.51 0.78 -2.92Q0.78 -1.59 1.69 -0.69Q2.59 0.2 3.82 0.2ZM7.23 -1.2L7.23 -1.2ZM5.82 -5.33Q6.17 -5.33 7.05 -5.14L7.05 -2.61Q5.97 -1.27 4.56 -1.27Q2.64 -1.27 2.64 -2.9Q2.64 -3.89 3.53 -4.61Q4.41 -5.33 5.82 -5.33Z"/><path transform="translate(133.05 42)" d="M7.75 -6.08L7.75 0L9.61 0L9.61 -6.47Q9.61 -10.65 6.17 -10.65Q4.09 -10.65 3.17 -9.11L2.59 -10.46L1.32 -10.46L1.32 0L3.17 0L3.17 -7.77Q3.54 -8.33 4.24 -8.71Q4.93 -9.09 5.57 -9.09Q6.75 -9.09 7.26 -8.42Q7.75 -7.75 7.75 -6.08Z"/><path transform="translate(143 42)" d="M0.77 -8.99L1.98 -8.99L1.98 -3.06Q1.98 -1.65 2.84 -0.72Q3.69 0.2 4.93 0.2Q6.31 0.2 7.46 -0.1L7.19 -1.73Q6.43 -1.37 5.71 -1.37Q4.73 -1.37 4.29 -1.92Q3.84 -2.48 3.84 -3.8L3.84 -8.99L6.71 -8.99L6.71 -10.46L3.84 -10.46L3.84 -13.36L1.98 -12.65L1.98 -10.46L0.77 -10.46L0.77 -8.99Z"/><path transform="translate(149.95 42)" d="M8.29 -8.3L9.21 -9.61Q8.76 -9.97 7.81 -10.31Q6.87 -10.65 6.05 -10.65Q3.54 -10.65 2.09 -9.14Q0.63 -7.63 0.63 -5.13Q0.63 -2.68 2.03 -1.24Q3.43 0.2 5.57 0.2Q7.77 0.2 9.27 -0.77L8.54 -2.33Q7.27 -1.37 6.02 -1.37Q4.4 -1.37 3.5 -2.32Q2.59 -3.29 2.59 -5.13Q2.59 -6.97 3.48 -8.03Q4.37 -9.09 5.88 -9.09Q6.57 -9.09 7.29 -8.84Q8.01 -8.58 8.29 -8.3ZM9.21 -9.61L9.21 -9.61Z"/><path transform="translate(158.85 42)" d="M1.94 -9.16Q0.63 -7.68 0.63 -5.25Q0.63 -2.75 1.88 -1.28Q3.13 0.2 5.37 0.2Q7.56 0.2 8.83 -1.26Q10.1 -2.72 10.1 -5.25Q10.1 -7.79 8.86 -9.22Q7.62 -10.65 5.37 -10.65Q3.24 -10.65 1.94 -9.16ZM0.63 -5.25L0.63 -5.25ZM5.37 -1.32Q2.59 -1.32 2.59 -5.25Q2.59 -7.07 3.35 -8.11Q4.1 -9.14 5.37 -9.14Q8.14 -9.14 8.14 -5.25Q8.14 -3.43 7.41 -2.37Q6.67 -1.32 5.37 -1.32ZM2.59 -5.25L2.59 -5.25Z"/><path transform="translate(168.6 42)" d="M1.94 -9.16Q0.63 -7.68 0.63 -5.25Q0.63 -2.75 1.88 -1.28Q3.13 0.2 5.37 0.2Q7.56 0.2 8.83 -1.26Q10.1 -2.72 10.1 -5.25Q10.1 -7.79 8.86 -9.22Q7.62 -10.65 5.37 -10.65Q3.24 -10.65 1.94 -9.16ZM0.63 -5.25L0.63 -5.25ZM5.37 -1.32Q2.59 -1.32 2.59 -5.25Q2.59 -7.07 3.35 -8.11Q4.1 -9.14 5.37 -9.14Q8.14 -9.14 8.14 -5.25Q8.14 -3.43 7.41 -2.37Q6.67 -1.32 5.37 -1.32ZM2.59 -5.25L2.59 -5.25Z"/><path transform="translate(178.35 42)" d="M3.17 4.1L3.17 -0.58Q3.39 -0.27 4.15 -0.04Q4.9 0.2 5.57 0.2Q7.93 0.2 9.18 -1.31Q10.43 -2.82 10.43 -5.21Q10.43 -7.88 9.19 -9.27Q7.95 -10.65 5.72 -10.65Q4.23 -10.65 3.17 -9.6L3.17 -10.46L1.32 -10.46L1.32 4.1L3.17 4.1ZM3.17 -0.58L3.17 -0.58ZM3.17 -2.11L3.17 -8.2Q3.51 -8.54 4.07 -8.82Q4.64 -9.09 5.03 -9.09Q6.84 -9.09 7.66 -8.17Q8.48 -7.26 8.48 -5.27Q8.48 -1.37 5.02 -1.37Q4.48 -1.37 3.92 -1.6Q3.35 -1.85 3.17 -2.11ZM3.17 -8.2L3.17 -8.2Z"/><path transform="translate(188.5 42)" d="M2.59 -5.05L10.13 -5.05Q10.27 -5.57 10.27 -6.18Q10.27 -8.18 9.04 -9.39Q7.77 -10.65 5.54 -10.65Q3.61 -10.65 2.21 -9.26Q0.63 -7.7 0.63 -5.11Q0.63 -2.62 2.17 -1.14Q3.54 0.2 5.52 0.2Q6.88 0.2 8 -0.21Q8.89 -0.53 9.32 -0.96L8.54 -2.29Q7.47 -1.37 5.88 -1.37Q4.48 -1.37 3.59 -2.23Q2.59 -3.21 2.59 -5.05ZM10.13 -5.05L10.13 -5.05ZM3.54 -8.29Q4.38 -9.09 5.62 -9.09Q6.95 -9.09 7.72 -8.27Q8.43 -7.52 8.43 -6.4L2.64 -6.4Q2.74 -7.53 3.54 -8.29ZM5.62 -9.09L5.62 -9.09Z"/><path transform="translate(198.4 42)" d="M5.78 -9.09Q6.4 -9.09 7 -8.67L7.77 -10.48Q6.84 -10.65 6.34 -10.65Q4.34 -10.65 3.32 -8.79L3.32 -10.46L1.46 -10.46L1.46 0L3.32 0L3.32 -6Q3.32 -7.28 4.06 -8.18Q4.79 -9.09 5.78 -9.09Z"/><path transform="translate(205.15 42)" d="M4.49 -2.31Q4.06 -2.74 3.46 -2.74Q2.85 -2.74 2.42 -2.31Q1.99 -1.88 1.99 -1.28Q1.99 -0.67 2.42 -0.23Q2.85 0.2 3.46 0.2Q4.06 0.2 4.49 -0.23Q4.92 -0.67 4.92 -1.28Q4.92 -1.88 4.49 -2.31ZM3.46 -2.74L3.46 -2.74Z"/><path transform="translate(211.5 42)" d="M8.29 -8.3L9.21 -9.61Q8.76 -9.97 7.81 -10.31Q6.87 -10.65 6.05 -10.65Q3.54 -10.65 2.09 -9.14Q0.63 -7.63 0.63 -5.13Q0.63 -2.68 2.03 -1.24Q3.43 0.2 5.57 0.2Q7.77 0.2 9.27 -0.77L8.54 -2.33Q7.27 -1.37 6.02 -1.37Q4.4 -1.37 3.5 -2.32Q2.59 -3.29 2.59 -5.13Q2.59 -6.97 3.48 -8.03Q4.37 -9.09 5.88 -9.09Q6.57 -9.09 7.29 -8.84Q8.01 -8.58 8.29 -8.3ZM9.21 -9.61L9.21 -9.61Z"/><path transform="translate(220.4 42)" d="M1.94 -9.16Q0.63 -7.68 0.63 -5.25Q0.63 -2.75 1.88 -1.28Q3.13 0.2 5.37 0.2Q7.56 0.2 8.83 -1.26Q10.1 -2.72 10.1 -5.25Q10.1 -7.79 8.86 -9.22Q7.62 -10.65 5.37 -10.65Q3.24 -10.65 1.94 -9.16ZM0.63 -5.25L0.63 -5.25ZM5.37 -1.32Q2.59 -1.32 2.59 -5.25Q2.59 -7.07 3.35 -8.11Q4.1 -9.14 5.37 -9.14Q8.14 -9.14 8.14 -5.25Q8.14 -3.43 7.41 -2.37Q6.67 -1.32 5.37 -1.32ZM2.59 -5.25L2.59 -5.25Z"/><path transform="translate(230.15 42)" d="M13.43 -6.62L13.43 0L15.28 0L15.28 -6.99Q15.28 -8.73 14.39 -9.69Q13.51 -10.65 11.88 -10.65Q10.99 -10.65 10.14 -10.25Q9.29 -9.85 8.97 -9.26Q8.08 -10.65 5.83 -10.65Q4.22 -10.65 3.14 -9.25L2.53 -10.46L1.32 -10.46L1.32 0L3.17 0L3.17 -7.71Q3.44 -8.23 4.07 -8.66Q4.7 -9.09 5.25 -9.09Q6.21 -9.09 6.8 -8.64Q7.37 -8.2 7.37 -7.43L7.37 0L9.23 0L9.23 -7.73Q9.44 -8.26 10.03 -8.67Q10.62 -9.09 11.29 -9.09Q13.43 -9.09 13.43 -6.62Z"/></g></g></g></defs></svg>